<?xml version="1.0" encoding="UTF-8"?>
<svg width="24px" height="24px" viewBox="0 0 24 24" version="1.1" xmlns="http://www.w3.org/2000/svg" xmlns:xlink="http://www.w3.org/1999/xlink">
    <title>icon_character</title>
    <g id="appUI" stroke="none" stroke-width="1" fill="none" fill-rule="evenodd" stroke-linecap="round" stroke-linejoin="round">
        <g id="3.6.1-设备注册-注册完成" transform="translate(-170.000000, -408.000000)" fill-rule="nonzero" stroke="#6B6F70" stroke-width="1.2">
            <g id="设备" transform="translate(25.000000, 298.000000)">
                <g id="编组-3" transform="translate(130.000000, 95.000000)">
                    <g id="icon/用户" transform="translate(15.000000, 15.000000)">
                        <g id="编组">
                            <path d="M10.6620585,4.41743636 C8.35616828,4.41743636 7.1868102,5.61047221 7.1868102,7.96479418 C7.1868102,10.1652108 7.42466398,12.565812 9.18973279,13.6883527 C9.41144265,13.8304192 9.54705159,14.076345 9.54705159,14.340029 L9.54705159,15.5761153 C9.54705159,15.9711033 9.24892717,16.3025918 8.85609173,16.3434898 C5.93673251,16.6513005 4,17.7759938 4,18.3846197 C4,19.9570377 6.21171731,20.7534712 10.5754194,20.7534712 C14.9681806,20.7534712 17.4898612,19.8903095 17.4898612,18.3846197 C17.4898612,17.7759938 15.5531287,16.6513005 12.6337695,16.3434898 C12.2414722,16.3025918 11.9433477,15.9716414 11.9433477,15.5761153 L11.9433477,14.340029 C11.9433477,14.076345 12.0778804,13.8304192 12.3012047,13.6883527 C14.0657354,12.5647357 14.3041273,10.1652108 14.3041273,7.96479418 C14.3041273,5.61101034 13.1342311,4.41743636 10.8278027,4.41743636 L10.6620585,4.41743636 L10.6620585,4.41743636 Z" id="路径"></path>
                            <path d="M21.8105129,16.789062 C21.8105129,16.1971182 19.6117107,14.7646142 17.0620473,14.4955488 C16.6686737,14.4535746 16.3705493,14.1237005 16.3705493,13.7281744 L16.3705493,12.1234685 C16.3705493,11.8603226 16.505082,11.6143968 16.72733,11.4723303 C18.7243331,10.2018037 18.9385091,7.37876981 18.9385091,6.22340312 C18.9385091,3.55911784 17.1379237,3 15.6273907,3" id="路径"></path>
                        </g>
                    </g>
                </g>
            </g>
        </g>
    </g>
</svg>