<?xml version="1.0" encoding="UTF-8"?>
<svg width="24px" height="24px" viewBox="0 0 24 24" version="1.1" xmlns="http://www.w3.org/2000/svg" xmlns:xlink="http://www.w3.org/1999/xlink">
    <title>icon_check</title>
    <g id="appUI" stroke="none" stroke-width="1" fill="none" fill-rule="evenodd">
        <g id="3.3.4-设备注册-iothub指向-蓝牙连接中" transform="translate(-40.000000, -354.000000)" fill-rule="nonzero">
            <g id="联网方式" transform="translate(25.000000, 212.000000)">
                <g id="list/输入框/上下式/矩形default备份" transform="translate(0.000000, 122.000000)">
                    <g id="list/个人中心列表">
                        <g id="icon/用户" transform="translate(15.000000, 20.000000)">
                            <g id="编组">
                                <path d="M12,22 C6.477,22 2,17.523 2,12 C2,6.477 6.477,2 12,2 C17.523,2 22,6.477 22,12 C22,17.523 17.523,22 12,22 Z" id="check" fill="#B5B5B5"></path>
                                <path d="M7.57573593,11.1363961 C7.78661905,10.925513 8.11542554,10.9044247 8.34989333,11.0731312 L8.42426407,11.1363961 L11.5353967,14.2478032 L16.7681241,9.01507576 C16.9790072,8.80419264 17.3078137,8.78310433 17.5422815,8.95181082 L17.6166522,9.01507576 C17.8275353,9.22595888 17.8486237,9.55476537 17.6799172,9.78923316 L17.6166522,9.8636039 L11.959798,15.5204581 C11.7489149,15.7313413 11.4201084,15.7524296 11.1856406,15.5837231 L11.1112698,15.5204581 L7.57573593,11.9849242 C7.34142136,11.7506097 7.34142136,11.3707107 7.57573593,11.1363961 Z" id="路径" fill="#FFFFFF"></path>
                            </g>
                        </g>
                    </g>
                </g>
            </g>
        </g>
    </g>
</svg>