<?xml version="1.0" encoding="UTF-8"?>
<svg width="28px" height="28px" viewBox="0 0 28 28" version="1.1" xmlns="http://www.w3.org/2000/svg" xmlns:xlink="http://www.w3.org/1999/xlink">
    <title>icon_register_device_bluetooth_offilie</title>
    <g id="appUI" stroke="none" stroke-width="1" fill="none" fill-rule="evenodd">
        <g id="3.1.5-设备注册-设备连接" transform="translate(-132.000000, -279.000000)">
            <g id="list/设备注册/设备连接" transform="translate(16.000000, 260.000000)">
                <g id="list/设备注册/设备连接/蓝牙已连接">
                    <g transform="translate(116.000000, 19.000000)">
                        <g>
                            <rect id="矩形" fill="#F1F1F1" fill-rule="nonzero" x="3" y="0" width="22" height="28" rx="11"></rect>
                            <g id="icon/蓝牙" transform="translate(3.000000, 3.000000)" fill="#B5B5B5">
                                <g id="编组">
                                    <path d="M10.45,4.58333333 C10.45,4.14616705 10.9280122,3.89495523 11.2829359,4.11123833 L11.3521014,4.16081163 L15.9354348,7.98025607 C16.1833599,8.1868604 16.1969564,8.55461584 15.9840068,8.77980255 L15.9133333,8.84277778 L12.1275,11.6810833 L15.9354348,14.8552561 C16.1943305,15.0710025 16.1961166,15.4594242 15.958997,15.6797425 L15.8884184,15.7354054 L11.3050851,18.790961 C10.963947,19.0183864 10.5147259,18.8053037 10.4563459,18.418729 L10.45,18.3333333 L10.45,12.9396667 L6.74666667,15.7177778 C6.52796191,15.8818063 6.22685143,15.8583178 6.03595324,15.6748289 L5.97666667,15.6077778 C5.8126381,15.389073 5.83612667,15.0879625 6.01961552,14.8970643 L6.08666667,14.8377778 L10.35375,11.6361667 L6.06456525,8.06141059 C5.85714099,7.88855704 5.80918265,7.59532791 5.93766168,7.3684091 L5.99414496,7.28678747 C6.16699851,7.07936321 6.46022764,7.03140487 6.68714645,7.1598839 L6.76876809,7.21636719 L10.45,10.2840833 L10.45,4.58333333 Z M11.55,12.6325833 L11.55,17.3048333 L14.6648333,15.2285833 L11.55,12.6325833 Z M11.55,5.75758333 L11.55,10.73875 L14.696,8.37925 L11.55,5.75758333 Z" id="路径-2" fill-rule="nonzero"></path>
                                </g>
                            </g>
                        </g>
                    </g>
                </g>
            </g>
        </g>
    </g>
</svg>