<?xml version="1.0" encoding="UTF-8"?>
<svg width="45px" height="44px" viewBox="0 0 45 44" version="1.1" xmlns="http://www.w3.org/2000/svg" xmlns:xlink="http://www.w3.org/1999/xlink">
    <title>icon_unlink</title>
    <g id="appUI" stroke="none" stroke-width="1" fill="none" fill-rule="evenodd">
        <g id="3.1.8-设备注册-解除连接" transform="translate(-310.000000, -302.000000)">
            <g id="编辑" transform="translate(311.000000, 302.000000)">
                <circle id="椭圆形" fill="#F1544F" cx="22" cy="22" r="22"></circle>
                <g id="编组" transform="translate(10.000000, 10.000000)">
                    <polygon id="路径" points="0 0 24 0 24 24 0 24"></polygon>
                    <path d="M17.657,14.828 L16.243,13.414 L17.657,12 C18.6675257,10.9894743 19.062181,9.51660094 18.6923029,8.13619712 C18.3224248,6.7557933 17.2442067,5.67757518 15.8638029,5.3076971 C14.4833991,4.93781902 13.0105257,5.33247425 12,6.343 L10.586,7.757 L9.172,6.343 L10.586,4.929 C12.9345588,2.61838521 16.7069259,2.63374593 19.03659,4.96341 C21.3662541,7.29307407 21.3816148,11.0654412 19.071,13.414 L17.657,14.828 L17.657,14.828 Z M14.828,17.657 L13.414,19.071 C11.9024795,20.6073421 9.68307771,21.2149626 7.59977329,20.6627998 C5.51646887,20.110637 3.88936297,18.4835311 3.33720019,16.4002267 C2.78503741,14.3169223 3.39265792,12.0975205 4.929,10.586 L6.343,9.172 L7.757,10.586 L6.343,12 C5.33247425,13.0105257 4.93781902,14.4833991 5.3076971,15.8638029 C5.67757518,17.2442067 6.7557933,18.3224248 8.13619712,18.6923029 C9.51660094,19.062181 10.9894743,18.6675257 12,17.657 L13.414,16.243 L14.828,17.657 L14.828,17.657 Z M14.828,7.757 L16.243,9.172 L9.172,16.242 L7.757,14.828 L14.828,7.758 L14.828,7.757 Z M5.775,2.293 L7.707,1.775 L8.742,5.64 L6.811,6.158 L5.775,2.294 L5.775,2.293 Z M15.258,18.361 L17.189,17.843 L18.225,21.707 L16.293,22.225 L15.258,18.361 L15.258,18.361 Z M2.293,5.775 L6.157,6.811 L5.639,8.742 L1.775,7.707 L2.293,5.775 Z M18.361,15.258 L22.225,16.293 L21.707,18.225 L17.843,17.189 L18.361,15.258 L18.361,15.258 Z" id="形状" fill="#FFFFFF" fill-rule="nonzero"></path>
                </g>
            </g>
        </g>
    </g>
</svg>