<?xml version="1.0" encoding="UTF-8"?>
<svg width="24px" height="25px" viewBox="0 0 24 25" version="1.1" xmlns="http://www.w3.org/2000/svg" xmlns:xlink="http://www.w3.org/1999/xlink">
    <title>icon_signal_0</title>
    <g id="appUI" stroke="none" stroke-width="1" fill="none" fill-rule="evenodd">
        <g id="设备管理-下拉刷新备份" transform="translate(-157.000000, -213.000000)" fill="#07BD41">
            <g id="icon/信号/0" transform="translate(157.000000, 213.500000)">
                <g id="编组">
                    <path d="M3.5,14 L5,14 C5.27614237,14 5.5,14.2238576 5.5,14.5 L5.5,18 L5.5,18 L3,18 L3,14.5 C3,14.2238576 3.22385763,14 3.5,14 Z" id="矩形" fill-opacity="0.17"></path>
                    <path d="M7.5,12 L9,12 C9.27614237,12 9.5,12.2238576 9.5,12.5 L9.5,18 L9.5,18 L7,18 L7,12.5 C7,12.2238576 7.22385763,12 7.5,12 Z" id="矩形备份" fill-opacity="0.17"></path>
                    <path d="M11.5,10 L13,10 C13.2761424,10 13.5,10.2238576 13.5,10.5 L13.5,18 L13.5,18 L11,18 L11,10.5 C11,10.2238576 11.2238576,10 11.5,10 Z" id="矩形备份-2" fill-opacity="0.17"></path>
                    <path d="M15.5,8 L17,8 C17.2761424,8 17.5,8.22385763 17.5,8.5 L17.5,18 L17.5,18 L15,18 L15,8.5 C15,8.22385763 15.2238576,8 15.5,8 Z" id="矩形备份-3" fill-opacity="0.17"></path>
                    <path d="M19.5,6 L21,6 C21.2761424,6 21.5,6.22385763 21.5,6.5 L21.5,18 L21.5,18 L19,18 L19,6.5 C19,6.22385763 19.2238576,6 19.5,6 Z" id="矩形备份-4" fill-opacity="0.169143357"></path>
                </g>
            </g>
        </g>
    </g>
</svg>