<?xml version="1.0" encoding="UTF-8"?>
<svg width="19px" height="18px" viewBox="0 0 19 18" version="1.1" xmlns="http://www.w3.org/2000/svg" xmlns:xlink="http://www.w3.org/1999/xlink">
    <title>icon_group</title>
    <g id="appUI" stroke="none" stroke-width="1" fill="none" fill-rule="evenodd" stroke-linecap="round" stroke-linejoin="round">
        <g id="个人中心-管理员" transform="translate(-121.000000, -152.000000)" fill-rule="nonzero" stroke="#6B6F70">
            <g id="all" transform="translate(16.000000, 103.000000)">
                <g id="编组-6" transform="translate(105.000000, 43.000000)">
                    <g id="编组-2">
                        <g id="icon/用户" transform="translate(0.500000, 6.000000)">
                            <g id="编组">
                                <path d="M7.99654385,3.31307727 C6.26712621,3.31307727 5.39010765,4.20785416 5.39010765,5.97359564 C5.39010765,7.62390808 5.56849799,9.42435899 6.89229959,10.2662645 C7.05858199,10.3728144 7.1602887,10.5572587 7.1602887,10.7550218 L7.1602887,11.6820865 C7.1602887,11.9783275 6.93669538,12.2269439 6.6420688,12.2576173 C4.45254938,12.4884754 3,13.3319953 3,13.7884647 C3,14.9677782 4.65878798,15.5651034 7.93156457,15.5651034 C11.2261354,15.5651034 13.1173959,14.9177321 13.1173959,13.7884647 C13.1173959,13.3319953 11.6648465,12.4884754 9.47532711,12.2576173 C9.18110413,12.2269439 8.95751081,11.9787311 8.95751081,11.6820865 L8.95751081,10.7550218 C8.95751081,10.5572587 9.05841032,10.3728144 9.22590351,10.2662645 C10.5493015,9.42355179 10.7280955,7.62390808 10.7280955,5.97359564 C10.7280955,4.20825775 9.85067329,3.31307727 8.12085205,3.31307727 L7.99654385,3.31307727 L7.99654385,3.31307727 Z" id="路径"></path>
                                <path d="M16.3578846,12.5917965 C16.3578846,12.1478387 14.708783,11.0734606 12.7965355,10.8716616 C12.5015053,10.840181 12.277912,10.5927754 12.277912,10.2961308 L12.277912,9.09260139 C12.277912,8.89524194 12.3788115,8.71079763 12.5454975,8.60424775 C14.0432498,7.65135274 14.2038819,5.53407736 14.2038819,4.66755234 C14.2038819,2.66933838 12.8534428,2.25 11.7205431,2.25" id="路径"></path>
                            </g>
                        </g>
                    </g>
                </g>
            </g>
        </g>
    </g>
</svg>