<?xml version="1.0" encoding="UTF-8"?>
<svg width="35px" height="34px" viewBox="0 0 35 34" version="1.1" xmlns="http://www.w3.org/2000/svg" xmlns:xlink="http://www.w3.org/1999/xlink">
    <title>icon_language_english_default</title>
    <g id="appUI" stroke="none" stroke-width="1" fill="none" fill-rule="evenodd">
        <g id="个人中心-选择语言-中文" transform="translate(-247.000000, -387.000000)" fill="#B5B5B5" fill-rule="nonzero">
            <g id="dialog" transform="translate(16.000000, 224.000000)">
                <g id="英文" transform="translate(176.500000, 133.000000)">
                    <g id="icon/语言/英文" transform="translate(55.000000, 30.000000)">
                        <g id="编组">
                            <g id="编组-2" transform="translate(1.416667, 1.416667)">
                                <path d="M25.1458333,0 C28.4710478,-4.4523941e-15 31.1666667,2.6956189 31.1666667,6.02083333 L31.1666667,21.5596256 C31.1666667,24.88484 28.4710478,27.5804589 25.1458333,27.5804589 L18.542291,27.5804589 L15.8474576,29.75 L13.573692,27.5804589 L6.02083333,27.5804589 C2.6956189,27.5804589 8.03432791e-14,24.88484 0,21.5596256 L0,6.02083333 C-4.07221321e-16,2.6956189 2.6956189,-2.77346438e-16 6.02083333,0 L25.1458333,0 Z M13.9453485,7.79166667 L5.66666667,7.79166667 L5.66666667,19.3140426 L14.2196908,19.3140426 L14.2196908,17.8132289 L7.42568484,17.8132289 L7.42568484,14.1499525 L13.5580418,14.1499525 L13.5580418,12.6491389 L7.42568484,12.6491389 L7.42568484,9.29248034 L13.9453485,9.29248034 L13.9453485,7.79166667 Z M17.7861405,7.79166667 L16.0109845,7.79166667 L16.0109845,19.3140426 L17.7700027,19.3140426 L17.7700027,10.648054 L17.8345538,10.648054 L23.7893952,19.3140426 L25.5,19.3140426 L25.5,7.79166667 L23.7409818,7.79166667 L23.7409818,16.3608286 L23.6764307,16.3608286 L17.7861405,7.79166667 Z" id="形状结合"></path>
                            </g>
                        </g>
                    </g>
                </g>
            </g>
        </g>
    </g>
</svg>