<?xml version="1.0" encoding="UTF-8"?>
<svg width="24px" height="24px" viewBox="0 0 24 24" version="1.1" xmlns="http://www.w3.org/2000/svg" xmlns:xlink="http://www.w3.org/1999/xlink">
    <title>icon_me_laugage</title>
    <g id="appUI" stroke="none" stroke-width="1" fill="none" fill-rule="evenodd">
        <g id="个人中心-管理员" transform="translate(-46.000000, -234.000000)" fill-rule="nonzero">
            <g id="all" transform="translate(16.000000, 103.000000)">
                <g id="设置" transform="translate(0.000000, 102.000000)">
                    <g id="list/个人中心列表备份-2" transform="translate(15.000000, 15.000000)">
                        <g id="list/个人中心列表">
                            <g id="icon/用户" transform="translate(15.000000, 14.000000)">
                                <g id="编组">
                                    <g id="编组-2" transform="translate(3.000000, 4.000000)">
                                        <path d="M3,0 L15,0 C16.6568542,-3.04359188e-16 18,1.34314575 18,3 L18,12.9288212 C18,14.5856754 16.6568542,15.9288212 15,15.9288212 L10.7089167,15.9288212 L10.7089167,15.9288212 L9.15254237,17.1818182 L7.83935151,15.9288212 L3,15.9288212 C1.34314575,15.9288212 3.92827566e-14,14.5856754 0,12.9288212 L0,3 C-2.02906125e-16,1.34314575 1.34314575,3.04359188e-16 3,0 Z" id="矩形" stroke="#6B6F70" stroke-width="1.2" stroke-linecap="round" stroke-linejoin="round"></path>
                                        <path d="M8.21244175,11.1546342 L8.21244175,10.2878541 L4.28863082,10.2878541 L4.28863082,8.1721651 L7.83031289,8.1721651 L7.83031289,7.30538501 L4.28863082,7.30538501 L4.28863082,5.36678009 L8.05399808,5.36678009 L8.05399808,4.5 L3.27272727,4.5 L3.27272727,11.1546342 L8.21244175,11.1546342 Z M10.2628893,11.1546342 L10.2628893,6.14967823 L10.3001701,6.14967823 L13.7393298,11.1546342 L14.7272727,11.1546342 L14.7272727,4.5 L13.7113692,4.5 L13.7113692,9.44903469 L13.6740883,9.44903469 L10.2722095,4.5 L9.24698572,4.5 L9.24698572,11.1546342 L10.2628893,11.1546342 Z" id="EN" fill="#6B6F70"></path>
                                    </g>
                                </g>
                            </g>
                        </g>
                    </g>
                </g>
            </g>
        </g>
    </g>
</svg>