<?xml version="1.0" encoding="UTF-8"?>
<svg width="34px" height="34px" viewBox="0 0 34 34" version="1.1" xmlns="http://www.w3.org/2000/svg" xmlns:xlink="http://www.w3.org/1999/xlink">
    <title>icon_language_chinese_default</title>
    <g id="appUI" stroke="none" stroke-width="1" fill="none" fill-rule="evenodd">
        <g id="个人中心-选择语言-英文" transform="translate(-96.000000, -387.000000)" fill="#B5B5B5" fill-rule="nonzero">
            <g id="dialog" transform="translate(16.000000, 224.000000)">
                <g id="中文" transform="translate(25.000000, 133.000000)">
                    <g id="icon/语言/中文" transform="translate(55.000000, 30.000000)">
                        <g id="编组">
                            <g id="编组-2" transform="translate(1.416667, 1.416667)">
                                <path d="M25.1458333,0 C28.4710478,-4.4523941e-15 31.1666667,2.6956189 31.1666667,6.02083333 L31.1666667,21.5596256 C31.1666667,24.88484 28.4710478,27.5804589 25.1458333,27.5804589 L18.542291,27.5804589 L15.8474576,29.75 L13.573692,27.5804589 L6.02083333,27.5804589 C2.6956189,27.5804589 8.03432791e-14,24.88484 0,21.5596256 L0,6.02083333 C-4.07221321e-16,2.6956189 2.6956189,-2.77346438e-16 6.02083333,0 L25.1458333,0 Z M16.4326329,5.66666667 L14.7165225,5.66666667 L14.7165225,8.69612691 L8.5,8.69612691 L8.5,17.1540997 L10.1635764,17.1540997 L10.1635764,16.1559539 L14.7165225,16.1559539 L14.7165225,22.0222497 L16.4326329,22.0222497 L16.4326329,16.1559539 L21.0030902,16.1559539 L21.0030902,17.1540997 L22.6666667,17.1540997 L22.6666667,8.69612691 L16.4326329,8.69612691 L16.4326329,5.66666667 Z M14.7165225,10.3246807 L14.7165225,14.5274001 L10.1635764,14.5274001 L10.1635764,10.3246807 L14.7165225,10.3246807 Z M21.0030902,10.3246807 L21.0030902,14.5274001 L16.4326329,14.5274001 L16.4326329,10.3246807 L21.0030902,10.3246807 Z" id="形状结合"></path>
                            </g>
                        </g>
                    </g>
                </g>
            </g>
        </g>
    </g>
</svg>