<?xml version="1.0" encoding="UTF-8"?>
<svg width="34px" height="34px" viewBox="0 0 34 34" version="1.1" xmlns="http://www.w3.org/2000/svg" xmlns:xlink="http://www.w3.org/1999/xlink">
    <title>icon_language_english_highlight</title>
    <g id="appUI" stroke="none" stroke-width="1" fill="none" fill-rule="evenodd">
        <g id="个人中心-选择语言-英文" transform="translate(-247.000000, -387.000000)" fill="#26C464" fill-rule="nonzero">
            <g id="dialog" transform="translate(16.000000, 224.000000)">
                <g id="英文" transform="translate(176.500000, 133.000000)">
                    <g id="icon/语言/英文" transform="translate(54.500000, 30.000000)">
                        <g id="编组">
                            <g id="编组-2" transform="translate(1.416667, 1.416667)">
                                <path d="M26.9166667,0 C29.2638769,-4.31175516e-16 31.1666667,1.90278981 31.1666667,4.25 L31.1666667,23.3304589 C31.1666667,25.6776691 29.2638769,27.5804589 26.9166667,27.5804589 L18.542291,27.5804589 L15.8474576,29.75 L13.573692,27.5804589 L4.25,27.5804589 C1.90278981,27.5804589 5.62426908e-14,25.6776691 0,23.3304589 L0,4.25 C-2.87450344e-16,1.90278981 1.90278981,1.31935394e-15 4.25,0 L26.9166667,0 Z M13.9453485,7.79166667 L5.66666667,7.79166667 L5.66666667,19.3140426 L14.2196908,19.3140426 L14.2196908,17.8132289 L7.42568484,17.8132289 L7.42568484,14.1499525 L13.5580418,14.1499525 L13.5580418,12.6491389 L7.42568484,12.6491389 L7.42568484,9.29248034 L13.9453485,9.29248034 L13.9453485,7.79166667 Z M17.7861405,7.79166667 L16.0109845,7.79166667 L16.0109845,19.3140426 L17.7700027,19.3140426 L17.7700027,10.648054 L17.8345538,10.648054 L23.7893952,19.3140426 L25.5,19.3140426 L25.5,7.79166667 L23.7409818,7.79166667 L23.7409818,16.3608286 L23.6764307,16.3608286 L17.7861405,7.79166667 Z" id="形状结合"></path>
                            </g>
                        </g>
                    </g>
                </g>
            </g>
        </g>
    </g>
</svg>