<?xml version="1.0" encoding="UTF-8"?>
<svg width="21px" height="20px" viewBox="0 0 21 20" version="1.1" xmlns="http://www.w3.org/2000/svg" xmlns:xlink="http://www.w3.org/1999/xlink">
    <title>icon_charactor_admin</title>
    <g id="appUI" stroke="none" stroke-width="1" fill="none" fill-rule="evenodd">
        <g id="个人中心-管理员" transform="translate(-206.000000, -116.000000)">
            <g id="all" transform="translate(16.000000, 103.000000)">
                <g id="名字" transform="translate(105.000000, 6.000000)">
                    <g id="管理员" transform="translate(80.000000, 5.000000)">
                        <g id="编组-4" transform="translate(4.500000, 2.000000)">
                            <rect id="矩形" x="1" y="0" width="20" height="20"></rect>
                            <path d="M11.3081917,4.99179298 L17.4747047,12.6999342 C17.5879056,12.8414354 17.5918404,13.0413609 17.4842949,13.1872066 L15.0384725,16.504061 C14.9630723,16.6063134 14.8435809,16.6666667 14.7165347,16.6666667 L7.27581838,16.6666667 C7.15308955,16.6666667 7.03715362,16.6103257 6.96131841,16.5138301 L4.35120911,13.19263 C4.23519912,13.0450146 4.23746568,12.8365803 4.35665827,12.6915225 L10.6867934,4.98772691 C10.8270428,4.81704286 11.0791042,4.79237074 11.2497882,4.93262019 C11.2712586,4.9502622 11.2908322,4.97009356 11.3081917,4.99179298 Z" id="多边形" fill="#FFFFFF" transform="translate(10.909623, 10.636610) scale(1, -1) translate(-10.909623, -10.636610) "></path>
                            <path d="M8.29149974,13.1003322 C8.33797406,13.0437728 8.38594138,12.9853964 8.43540168,12.925203 C9.00515297,12.2318138 9.77301724,11.2973204 10.7389945,10.1217229 C10.855869,9.97948619 11.0659202,9.95892609 11.2081569,10.0758006 C11.2260489,10.0905023 11.2423601,10.1070284 11.2568264,10.1251113 C12.34543,11.4858658 13.1618827,12.5064317 13.7061845,13.186809" id="路径" stroke="#FDC313" stroke-linecap="round" transform="translate(10.998842, 11.593404) scale(1, -1) translate(-10.998842, -11.593404) "></path>
                        </g>
                    </g>
                </g>
            </g>
        </g>
    </g>
</svg>