<?xml version="1.0" encoding="UTF-8"?>
<svg width="33px" height="32px" viewBox="0 0 33 32" version="1.1" xmlns="http://www.w3.org/2000/svg" xmlns:xlink="http://www.w3.org/1999/xlink">
    <title>icon_more_all</title>
    <g id="appUI" stroke="none" stroke-width="1" fill="none" fill-rule="evenodd">
        <g id="设备管理-更多操作" transform="translate(-53.000000, -513.000000)" fill="#26C464" fill-rule="nonzero">
            <g id="编组-principle-flatten" transform="translate(0.000000, 400.000000)">
                <g id="list/更多操作/card3备份-8" transform="translate(16.000000, 98.000000)">
                    <g id="list/更多操作/card3">
                        <g id="icon/更多操作/io配置/面" transform="translate(38.000000, 15.000000)">
                            <g id="编组">
                                <path d="M25.3333333,4 C26.069713,4 26.6666667,4.59695367 26.6666667,5.33333333 L26.6666667,25.3333333 C26.6666667,26.069713 26.069713,26.6666667 25.3333333,26.6666667 L8,26.6666667 C7.26362033,26.6666667 6.66666667,26.069713 6.66666667,25.3333333 L6.66666667,5.33333333 C6.66666667,4.59695367 7.26362033,4 8,4 L25.3333333,4 Z M16.6666667,20.6666667 L11.3333333,20.6666667 L11.2134992,20.6774076 C10.9025002,20.7338555 10.6666667,21.0060535 10.6666667,21.3333333 C10.6666667,21.7015232 10.9651435,22 11.3333333,22 L11.3333333,22 L16.6666667,22 L16.7865008,21.9892591 C17.0974998,21.9328112 17.3333333,21.6606132 17.3333333,21.3333333 C17.3333333,20.9651435 17.0348565,20.6666667 16.6666667,20.6666667 L16.6666667,20.6666667 Z M20.6666667,16.6666667 L11.3333333,16.6666667 L11.2134992,16.6774076 C10.9025002,16.7338555 10.6666667,17.0060535 10.6666667,17.3333333 C10.6666667,17.7015232 10.9651435,18 11.3333333,18 L11.3333333,18 L20.6666667,18 L20.7865008,17.9892591 C21.0974998,17.9328112 21.3333333,17.6606132 21.3333333,17.3333333 C21.3333333,16.9651435 21.0348565,16.6666667 20.6666667,16.6666667 L20.6666667,16.6666667 Z M20.6666667,12.6666667 L11.3333333,12.6666667 L11.2134992,12.6774076 C10.9025002,12.7338555 10.6666667,13.0060535 10.6666667,13.3333333 C10.6666667,13.7015232 10.9651435,14 11.3333333,14 L11.3333333,14 L20.6666667,14 L20.7865008,13.9892591 C21.0974998,13.9328112 21.3333333,13.6606132 21.3333333,13.3333333 C21.3333333,12.9651435 21.0348565,12.6666667 20.6666667,12.6666667 L20.6666667,12.6666667 Z M20.6666667,8.66666667 L11.3333333,8.66666667 L11.2134992,8.67740756 C10.9025002,8.73385551 10.6666667,9.00605348 10.6666667,9.33333333 C10.6666667,9.70152317 10.9651435,10 11.3333333,10 L11.3333333,10 L20.6666667,10 L20.7865008,9.98925911 C21.0974998,9.93281116 21.3333333,9.66061319 21.3333333,9.33333333 C21.3333333,8.9651435 21.0348565,8.66666667 20.6666667,8.66666667 L20.6666667,8.66666667 Z" id="形状结合"></path>
                            </g>
                        </g>
                    </g>
                </g>
            </g>
        </g>
    </g>
</svg>