<?xml version="1.0" encoding="UTF-8"?>
<svg width="33px" height="32px" viewBox="0 0 33 32" version="1.1" xmlns="http://www.w3.org/2000/svg" xmlns:xlink="http://www.w3.org/1999/xlink">
    <title>icon_more_editlog</title>
    <g id="appUI" stroke="none" stroke-width="1" fill="none" fill-rule="evenodd">
        <g id="设备管理-更多操作" transform="translate(-171.000000, -610.000000)">
            <g id="编组-principle-flatten" transform="translate(0.000000, 400.000000)">
                <g id="list/更多操作/card3备份-4" transform="translate(134.000000, 195.000000)">
                    <g id="list/更多操作/card3">
                        <g id="icon/更多操作/io配置/面" transform="translate(38.000000, 15.000000)">
                            <g id="编组">
                                <g transform="translate(2.666667, 2.666667)">
                                    <polygon id="路径" points="0 0 26.6666667 0 26.6666667 26.6666667 0 26.6666667"></polygon>
                                    <path d="M18.6188889,3.33333333 L10.3233333,11.6288889 L10.3322222,16.3477778 L15.0411111,16.34 L23.3333333,8.04777778 L23.3333333,22.2222222 C23.3333333,22.8358719 22.8358719,23.3333333 22.2222222,23.3333333 L4.44444444,23.3333333 C3.83079472,23.3333333 3.33333333,22.8358719 3.33333333,22.2222222 L3.33333333,4.44444444 C3.33333333,3.83079472 3.83079472,3.33333333 4.44444444,3.33333333 L18.6188889,3.33333333 L18.6188889,3.33333333 Z M22.7611111,2.33333333 L24.3333333,3.90666667 L14.12,14.12 L12.5511111,14.1233333 L12.5488889,12.5488889 L22.7611111,2.33333333 L22.7611111,2.33333333 Z" id="形状" fill="#4D8CEB"></path>
                                </g>
                            </g>
                        </g>
                    </g>
                </g>
            </g>
        </g>
    </g>
</svg>