<?xml version="1.0" encoding="UTF-8"?>
<svg width="24px" height="24px" viewBox="0 0 24 24" version="1.1" xmlns="http://www.w3.org/2000/svg" xmlns:xlink="http://www.w3.org/1999/xlink">
    <title>icon_linkageconfi</title>
    <g id="appUI" stroke="none" stroke-width="1" fill="none" fill-rule="evenodd">
        <g id="4.3.2-数字量P0_B" transform="translate(-34.000000, -417.000000)" fill="#FFFFFF" fill-rule="nonzero">
            <g id="编组" transform="translate(25.000000, 186.000000)">
                <g id="联动配置-principle-flatten" transform="translate(0.000000, 219.000000)">
                    <g id="channel配置">
                        <g id="icon/列表备份" transform="translate(9.000000, 12.000000)">
                            <g id="编组">
                                <path d="M19.5570669,14.0831363 C19.6289214,14.5574476 19.912917,14.9731998 20.328615,15.2126353 C20.7439856,15.4528998 21.2461971,15.4908163 21.6929331,15.31564 C22.055337,15.721368 22.3298529,16.1977061 22.4992107,16.7146875 C22.1245383,17.0141477 21.9066459,17.467945 21.9072301,17.9475859 C21.9072301,18.4464282 22.1384972,18.891203 22.5,19.1804842 C22.3296404,19.6970377 22.0547841,20.1729987 21.6925384,20.5787425 C21.245917,20.4036937 20.7438811,20.4416079 20.328615,20.6817471 C19.9132647,20.9211045 19.6294524,21.3365105 19.5574616,21.8104569 C19.0251564,21.9223514 18.475456,21.9228889 17.9429331,21.8120355 C17.8714167,21.3372881 17.5873785,20.9210377 17.171385,20.6813525 C16.7559528,20.4412176 16.2537436,20.4034466 15.8070669,20.5787425 C15.4446161,20.1728986 15.1700977,19.6964217 15.0007893,19.1793003 C15.3752451,18.8800128 15.5931139,18.4265554 15.5927699,17.9471912 C15.5931625,17.4674171 15.3749681,17.013596 15,16.7142929 C15.1703596,16.1977394 15.4452159,15.7217784 15.8074616,15.3160346 C16.254083,15.4910834 16.7561189,15.4531692 17.171385,15.21303 C17.5405853,15.0002679 17.8058543,14.6484056 17.9108064,14.239973 L17.9425384,14.0839256 C18.474898,13.9722913 19.0245984,13.9720226 19.5570669,14.0831363 Z M17,10 C17.5522847,10 18,10.4477153 18,11 L18,13.5 C18,14.0522847 17.5522847,14.5 17,14.5 L7,14.5 C6.44771525,14.5 6,14.0522847 6,13.5 L6,13 L5.5,13 L5.32777342,13.0052416 C4.01946746,13.0851681 3,14.0688928 3,15.25 C3,16.4311072 4.01946746,17.4148319 5.32777342,17.4947584 L5.5,17.5 L5.999,17.5 L6,17.25 C6,16.7371642 6.38604019,16.3144928 6.88337887,16.2567277 L7,16.25 L14,16.25 C14.2761424,16.25 14.5,16.4738576 14.5,16.75 C14.5,16.9954599 14.3231248,17.1996084 14.0898756,17.2419443 L14,17.25 L7,17.25 L7,19.25 L14.1,19.25 C14.3761424,19.25 14.6,19.4738576 14.6,19.75 C14.6,19.9954599 14.4231248,20.1996084 14.1898756,20.2419443 L14.1,20.25 L7,20.25 C6.48716416,20.25 6.06449284,19.8639598 6.00672773,19.3666211 L6,19.25 L5.999,18.5 L5.5,18.5 L5.30882861,18.4952239 C3.47291575,18.4032735 2,16.9949362 2,15.25 C2,13.5050638 3.47291575,12.0967265 5.30882861,12.0047761 L5.5,12 L6,12 L6,11 C6,10.4477153 6.44771525,10 7,10 L17,10 Z M18.75,16.7636246 C18.0961162,16.7636246 17.5660387,17.2937021 17.5660387,17.9475859 C17.5660387,18.6014696 18.0961162,19.1315472 18.75,19.1315472 C19.4038838,19.1315472 19.9339613,18.6014696 19.9339613,17.9475859 C19.9339613,17.2937021 19.4038838,16.7636246 18.75,16.7636246 Z M17,11 L7,11 L7,13.5 L17,13.5 L17,11 Z M19,6 C20.9237525,6 22.5,7.44489357 22.5,9.25 C22.5,10.9949362 21.0270843,12.4032735 19.1911714,12.4952239 L19,12.5 L18.5,12.5 L18.5,11.5 L19,11.5 C20.389956,11.5 21.5,10.4824597 21.5,9.25 C21.5,8.06889279 20.4805325,7.08516815 19.1722266,7.00524163 L19,7 L18.5,7 L18.5,6 L19,6 Z M17,4 C17.5522847,4 18,4.44771525 18,5 L18,7.5 C18,8.05228475 17.5522847,8.5 17,8.5 L7,8.5 C6.44771525,8.5 6,8.05228475 6,7.5 L6,5 C6,4.44771525 6.44771525,4 7,4 L17,4 Z M17,5 L7,5 L7,7.5 L17,7.5 L17,5 Z" id="形状"></path>
                            </g>
                        </g>
                    </g>
                </g>
            </g>
        </g>
    </g>
</svg>