<?xml version="1.0" encoding="UTF-8"?>
<svg width="24px" height="24px" viewBox="0 0 24 24" version="1.1" xmlns="http://www.w3.org/2000/svg" xmlns:xlink="http://www.w3.org/1999/xlink">
    <title>icon_quick_page</title>
    <g id="appUI" stroke="none" stroke-width="1" fill="none" fill-rule="evenodd">
        <g id="4.1.3-下拉框" transform="translate(-335.000000, -745.000000)" fill="#26C464" fill-rule="nonzero">
            <g id="icon/快速跳转" transform="translate(335.000000, 745.000000)">
                <g id="编组">
                    <path d="M12,1.25 C17.9370611,1.25 22.75,6.06293894 22.75,12 C22.75,17.9370611 17.9370611,22.75 12,22.75 C6.06293894,22.75 1.25,17.9370611 1.25,12 C1.25,6.06293894 6.06293894,1.25 12,1.25 Z M12,2.75 C6.89136606,2.75 2.75,6.89136606 2.75,12 C2.75,17.1086339 6.89136606,21.25 12,21.25 C17.1086339,21.25 21.25,17.1086339 21.25,12 C21.25,6.89136606 17.1086339,2.75 12,2.75 Z M15.0570001,7.97693709 L15.1313708,8.04020203 L18.6669048,11.5757359 C18.8777879,11.786619 18.8988762,12.1154255 18.7301697,12.3498933 L18.6669048,12.4242641 L15.1313708,15.959798 C14.8970563,16.1941125 14.5171573,16.1941125 14.2828427,15.959798 C14.0719596,15.7489149 14.0508713,15.4201084 14.2195778,15.1856406 L14.2828427,15.1112698 L16.794,12.5994661 L6,12.6 C5.66862915,12.6 5.4,12.3313708 5.4,12 C5.4,11.7017662 5.61758961,11.4543532 5.90267688,11.407853 L6,11.4 L16.794,11.3994661 L14.2828427,8.88873016 C14.0719596,8.67784705 14.0508713,8.34904055 14.2195778,8.11457276 L14.2828427,8.04020203 C14.4937258,7.82931891 14.8225323,7.8082306 15.0570001,7.97693709 Z" id="形状"></path>
                </g>
            </g>
        </g>
    </g>
</svg>