<?xml version="1.0" encoding="UTF-8"?>
<svg width="33px" height="32px" viewBox="0 0 33 32" version="1.1" xmlns="http://www.w3.org/2000/svg" xmlns:xlink="http://www.w3.org/1999/xlink">
    <title>icon_more_ioset</title>
    <g id="appUI" stroke="none" stroke-width="1" fill="none" fill-rule="evenodd">
        <g id="设备管理-更多操作" transform="translate(-171.000000, -513.000000)" fill="#ED8549">
            <g id="编组-principle-flatten" transform="translate(0.000000, 400.000000)">
                <g id="list/更多操作/card3" transform="translate(134.000000, 98.000000)">
                    <g id="icon/更多操作/io配置/面">
                        <g transform="translate(38.000000, 15.000000)">
                            <g id="蒙版">
                                <path d="M18.7266667,2.944 C18.969426,4.5464554 19.9289022,5.95106953 21.3333333,6.76 C22.7366583,7.57173078 24.4333742,7.69983111 25.9426667,7.108 C27.1670444,8.47874749 28.0944934,10.0880507 28.6666667,11.8346667 C27.4008403,12.8463893 26.6646931,14.3795386 26.6666667,16 C26.6666667,17.6853333 27.448,19.188 28.6693333,20.1653333 C28.0937754,21.9105037 27.1651762,23.5185324 25.9413333,24.8893333 C24.4324279,24.2979331 22.7363051,24.4260257 21.3333333,25.2373333 C19.9300769,26.0459995 18.97122,27.4494441 18.728,29.0506667 C16.929613,29.4287013 15.0724562,29.4305171 13.2733333,29.056 C13.0317161,27.4520713 12.0720962,26.0457741 10.6666667,25.236 C9.26313359,24.4247071 7.56642536,24.2970981 6.05733333,24.8893333 C4.83279722,23.5181941 3.90533987,21.9084223 3.33333333,20.1613333 C4.59842822,19.150194 5.33449522,17.6181933 5.33333333,15.9986667 C5.33465952,14.377755 4.59749217,12.8445254 3.33066667,11.8333333 C3.90622462,10.088163 4.83482379,8.48013423 6.05866667,7.10933333 C7.56757208,7.70073359 9.26369492,7.57264098 10.6666667,6.76133333 C12.0699231,5.95266715 13.02878,4.54922255 13.272,2.948 L13.272,2.94666667 C15.070571,2.56951159 16.9277278,2.56860366 18.7266667,2.944 Z M16,12 C13.790861,12 12,13.790861 12,16 C12,18.209139 13.790861,20 16,20 C18.209139,20 20,18.209139 20,16 C20,13.790861 18.209139,12 16,12 Z" id="形状结合"></path>
                            </g>
                        </g>
                    </g>
                </g>
            </g>
        </g>
    </g>
</svg>