<?xml version="1.0" encoding="UTF-8"?>
<svg width="24px" height="24px" viewBox="0 0 24 24" version="1.1" xmlns="http://www.w3.org/2000/svg" xmlns:xlink="http://www.w3.org/1999/xlink">
    <title>icon_channelconfi</title>
    <g id="appUI" stroke="none" stroke-width="1" fill="none" fill-rule="evenodd">
        <g id="4.3.2-数字量P0_B" transform="translate(-34.000000, -271.000000)" fill="#FFFFFF" fill-rule="nonzero">
            <g id="编组" transform="translate(25.000000, 186.000000)">
                <g id="channel配置-principle-flatten" transform="translate(0.000000, 73.000000)">
                    <g id="channel配置">
                        <g id="icon/列表备份" transform="translate(9.000000, 12.000000)">
                            <g id="编组">
                                <path d="M12,1.25 C17.9370611,1.25 22.75,6.06293894 22.75,12 C22.75,12.5454501 22.7093164,13.0860595 22.6288328,13.6186791 C22.566944,14.028243 22.184756,14.3100895 21.775192,14.2482007 C21.3656281,14.1863119 21.0837816,13.8041239 21.1456704,13.39456 C21.2149541,12.936058 21.25,12.4703643 21.25,12 C21.25,6.89136606 17.1086339,2.75 12,2.75 C6.89136606,2.75 2.75,6.89136606 2.75,12 C2.75,17.1086339 6.89136606,21.25 12,21.25 C13.0278807,21.25 14.0319878,21.0825954 14.9839898,20.758347 C15.3760846,20.624801 15.8022007,20.8343961 15.9357467,21.2264909 C16.0692928,21.6185857 15.8596976,22.0447018 15.4676028,22.1782479 C14.3603865,22.5553617 13.1929293,22.75 12,22.75 C6.06293894,22.75 1.25,17.9370611 1.25,12 C1.25,6.06293894 6.06293894,1.25 12,1.25 Z M19.5570669,13.749803 C19.6289214,14.2241142 19.912917,14.6398664 20.328615,14.879302 C20.7439856,15.1195665 21.2461971,15.1574829 21.6929331,14.9823066 C22.055337,15.3880346 22.3298529,15.8643728 22.4992107,16.3813542 C22.1245383,16.6808143 21.9066459,17.1346117 21.9072301,17.6142525 C21.9072301,18.1130949 22.1384972,18.5578697 22.5,18.8471509 C22.3296404,19.3637044 22.0547841,19.8396654 21.6925384,20.2454091 C21.245917,20.0703604 20.7438811,20.1082746 20.328615,20.3484138 C19.9132647,20.5877711 19.6294524,21.0031772 19.5574616,21.4771235 C19.0251564,21.5890181 18.475456,21.5895556 17.9429331,21.4787021 C17.8714167,21.0039548 17.5873785,20.5877044 17.171385,20.3480191 C16.7559528,20.1078843 16.2537436,20.0701133 15.8070669,20.2454091 C15.4446161,19.8395652 15.1700977,19.3630884 15.0007893,18.8459669 C15.3752451,18.5466795 15.5931139,18.0932221 15.5927699,17.6138579 C15.5931625,17.1340837 15.3749681,16.6802626 15,16.3809596 C15.1703596,15.864406 15.4452159,15.3884451 15.8074616,14.9827013 C16.254083,15.15775 16.7561189,15.1198359 17.171385,14.8796967 C17.5405853,14.6669346 17.8058543,14.3150723 17.9108064,13.9066397 L17.9425384,13.7505923 C18.474898,13.638958 19.0245984,13.6386893 19.5570669,13.749803 Z M18.75,16.4302913 C18.0961162,16.4302913 17.5660387,16.9603688 17.5660387,17.6142525 C17.5660387,18.2681363 18.0961162,18.7982138 18.75,18.7982138 C19.4038838,18.7982138 19.9339613,18.2681363 19.9339613,17.6142525 C19.9339613,16.9603688 19.4038838,16.4302913 18.75,16.4302913 Z M12,5.4 C15.6450793,5.4 18.6,8.35492065 18.6,12 C18.6,12.3313708 18.3313708,12.6 18,12.6 C17.6686292,12.6 17.4,12.3313708 17.4,12 C17.4,9.01766235 14.9823376,6.6 12,6.6 C9.01766235,6.6 6.6,9.01766235 6.6,12 C6.6,14.9823376 9.01766235,17.4 12,17.4 C12.4522444,17.4 12.8966814,17.3445358 13.3265482,17.2360035 C13.6478369,17.154885 13.9740524,17.3495813 14.055171,17.67087 C14.1362896,17.9921587 13.9415932,18.3183742 13.6203045,18.3994928 C13.0945954,18.5322232 12.5514969,18.6 12,18.6 C8.35492065,18.6 5.4,15.6450793 5.4,12 C5.4,8.35492065 8.35492065,5.4 12,5.4 Z" id="形状"></path>
                            </g>
                        </g>
                    </g>
                </g>
            </g>
        </g>
    </g>
</svg>