<?xml version="1.0" encoding="UTF-8"?>
<svg width="18px" height="18px" viewBox="0 0 18 18" version="1.1" xmlns="http://www.w3.org/2000/svg" xmlns:xlink="http://www.w3.org/1999/xlink">
    <title>icon_set_label</title>
    <g id="appUI" stroke="none" stroke-width="1" fill="none" fill-rule="evenodd">
        <g id="4.3.7-告警设置" transform="translate(-45.000000, -280.000000)" fill="#6B6F70" fill-rule="nonzero">
            <g id="card/配置设备信息" transform="translate(25.000000, 186.000000)">
                <g id="编组-3">
                    <g id="编组-2" transform="translate(20.000000, 93.000000)">
                        <g id="icon/设备名称" transform="translate(0.000000, 1.000000)">
                            <g id="编组">
                                <g id="编组-2" transform="translate(2.080338, 1.831699)">
                                    <path d="M1.17294972,2.5578652 L5.35021363,2.61987831 C5.60617058,2.62369856 5.8520167,2.7146317 6.04806395,2.87589035 L6.12891959,2.9492579 L11.9403501,8.7606884 C12.3522312,9.17256949 12.3779738,9.8243663 12.0175778,10.2662369 L11.9403501,10.3516787 L8.22803949,14.0639893 C7.8161584,14.4758704 7.1643616,14.5016129 6.72249104,14.141217 L6.63704924,14.0639893 L0.825618727,8.25255875 C0.644609677,8.0715497 0.53152794,7.83507207 0.503160891,7.58281389 L0.496239141,7.4738528 L0.43405783,3.31897446 C0.428044428,2.90480703 0.758782291,2.5640468 1.17294972,2.5578652 Z M3.30034973,0.4353652 L7.47761363,0.497378309 C7.73357058,0.501198562 7.9794167,0.592131699 8.17546395,0.753390346 L8.25631959,0.826757895 L14.0677501,6.6381884 C14.4812464,7.05168471 14.5055697,7.70698212 14.14072,8.14892562 L14.0677501,8.22917866 L13.007315,9.29064398 L13.0002162,9.2847252 C12.9440745,8.89891151 12.7675625,8.52724065 12.4706802,8.23035832 L6.65924967,2.41892781 C6.31447053,2.07414867 5.84894345,1.87723851 5.36140641,1.86996183 L2.57144054,1.8288652 L2.56094054,1.19647446 C2.55591994,0.814166059 2.83729315,0.494405815 3.20636901,0.442612113 L3.30034973,0.4353652 Z M3.14716162,4.52080079 C2.73294806,4.52080079 2.39716162,4.85658723 2.39716162,5.27080079 C2.39716162,5.68501435 2.73294806,6.02080079 3.14716162,6.02080079 C3.56137518,6.02080079 3.89716162,5.68501435 3.89716162,5.27080079 C3.89716162,4.85658723 3.56137518,4.52080079 3.14716162,4.52080079 Z" id="形状"></path>
                                </g>
                            </g>
                        </g>
                    </g>
                </g>
            </g>
        </g>
    </g>
</svg>