<?xml version="1.0" encoding="UTF-8"?>
<svg width="32px" height="15px" viewBox="0 0 32 15" version="1.1" xmlns="http://www.w3.org/2000/svg" xmlns:xlink="http://www.w3.org/1999/xlink">
    <title>icon_new_label</title>
    <g id="appUI" stroke="none" stroke-width="1" fill="none" fill-rule="evenodd">
        <g id="4.2.7-fota管理-有新版本" transform="translate(-126.000000, -194.000000)" fill="#F1544F" fill-rule="nonzero">
            <g id="当前版本" transform="translate(16.000000, 98.000000)">
                <g id="new" transform="translate(110.000000, 96.000000)">
                    <path d="M29.9003205,2.12166667 C28.5945361,0.778367034 26.8003595,0.0212117592 24.9269872,0.0228818493 L7.68294872,0.0228818493 C3.46778846,0.0228818493 0.0195512821,3.55009615 0.0195512821,7.86189103 L0.0195512821,14.3924066 L24.9269551,14.3924066 C26.8003206,14.3940741 28.5944923,13.6369324 29.9002885,12.2936538 C31.2239243,10.9324563 31.9606946,9.10629113 31.9523161,7.20766026 C31.9607307,5.30902863 31.2239681,3.48285406 29.9003205,2.12166667 L29.9003205,2.12166667 Z M11.8336859,11.1256731 L11.8336859,11.1271474 L10.8765385,11.1271474 L7.36387821,5.44403846 L7.36387821,11.1286218 L6.40525641,11.1286218 L6.40525641,3.68189103 L7.36240385,3.68189103 L10.8750641,9.365 L10.8750641,3.68189103 L11.8336859,3.68189103 L11.8336859,11.1256731 Z M18.0305769,11.1271474 L13.5607692,11.1271474 L13.5607692,3.68041667 L17.9661859,3.68041667 L17.9661859,4.4649359 L14.5179167,4.4649359 L14.5179167,6.87987179 L17.5182372,6.87987179 L17.5182372,7.66576923 L14.5179167,7.66576923 L14.5179167,10.3441346 L18.0305769,10.3441346 L18.0305769,11.1271474 L18.0305769,11.1271474 Z M25.1816346,11.1930449 L24.2888782,11.1930449 L22.819391,6.03092949 L22.6921154,5.37820513 L22.5647115,6.03092949 L21.0952885,11.1930449 L20.2025,11.1930449 L18.4769231,3.74628205 L19.5629167,3.74628205 L20.6489423,8.58054487 L20.6489423,8.57907051 L20.840641,9.55961538 L21.0323077,8.58054487 L22.3085577,3.74628205 L23.2672436,3.74628205 L24.5449359,8.57907051 L24.7352244,9.55961538 L24.8640705,8.58054487 L25.885641,3.74628205 L26.9701603,3.74628205 L25.1816346,11.1930449 L25.1816346,11.1930449 Z" id="形状"></path>
                </g>
            </g>
        </g>
    </g>
</svg>