<?xml version="1.0" encoding="UTF-8"?>
<svg width="24px" height="24px" viewBox="0 0 24 24" version="1.1" xmlns="http://www.w3.org/2000/svg" xmlns:xlink="http://www.w3.org/1999/xlink">
    <title>icon_add</title>
    <g id="appUI" stroke="none" stroke-width="1" fill="none" fill-rule="evenodd">
        <g id="4.3.8-选择告警标签" transform="translate(-295.000000, -340.000000)" fill="#36383B" fill-rule="nonzero">
            <g id="dialog" transform="translate(16.000000, 129.000000)">
                <g id="tag/选择/默认备份-3" transform="translate(177.000000, 202.000000)">
                    <g id="编组-2">
                        <g id="icon/加" transform="translate(102.000000, 9.000000)">
                            <g id="编组">
                                <path d="M12,6.4 C12.2982338,6.4 12.5456468,6.61758961 12.592147,6.90267688 L12.6,7 L12.599,11.4 L17,11.4 C17.3313708,11.4 17.6,11.6686292 17.6,12 C17.6,12.2982338 17.3824104,12.5456468 17.0973231,12.592147 L17,12.6 L12.599,12.6 L12.6,17 C12.6,17.3313708 12.3313708,17.6 12,17.6 C11.7017662,17.6 11.4543532,17.3824104 11.407853,17.0973231 L11.4,17 L11.399,12.6 L7,12.6 C6.66862915,12.6 6.4,12.3313708 6.4,12 C6.4,11.7017662 6.61758961,11.4543532 6.90267688,11.407853 L7,11.4 L11.399,11.4 L11.4,7 C11.4,6.66862915 11.6686292,6.4 12,6.4 Z" id="路径"></path>
                            </g>
                        </g>
                    </g>
                </g>
            </g>
        </g>
    </g>
</svg>