<?xml version="1.0" encoding="UTF-8"?>
<svg width="24px" height="24px" viewBox="0 0 24 24" version="1.1" xmlns="http://www.w3.org/2000/svg" xmlns:xlink="http://www.w3.org/1999/xlink">
    <title>icon_device_update</title>
    <g id="appUI" stroke="none" stroke-width="1" fill="none" fill-rule="evenodd">
        <g id="设备管理" transform="translate(-237.000000, -289.000000)" fill-rule="nonzero">
            <g id="list/设备管理/card22-principle-flatten" transform="translate(16.000000, 137.000000)">
                <g id="编组">
                    <g id="编组-2" transform="translate(143.000000, 152.000000)">
                        <g id="编组-9" transform="translate(60.000000, 0.000000)">
                            <g id="升级" transform="translate(18.000000, 0.000000)">
                                <g id="icon/信号/0备份-2">
                                    <g id="编组">
                                        <g transform="translate(4.000000, 5.000000)" id="路径">
                                            <path d="M4.50211683,14.2374044 C2.40068283,14.0760493 0.640899662,12.5825232 0.1400096,10.5352886 C-0.360880461,8.48805401 0.510560828,6.35075499 2.30011683,5.23740436 C2.68415965,2.24292487 5.23311097,0 8.25211683,0 C11.2711227,0 13.820074,2.24292487 14.2041168,5.23740436 C15.9936728,6.35075499 16.8651141,8.48805401 16.3642241,10.5352886 C15.863334,12.5825232 14.1035508,14.0760493 12.0021168,14.2374044 L12.0021168,14.2516544 L4.50211683,14.2516544 L4.50211683,14.2374044 Z" fill="#26C464"></path>
                                            <path d="M8.84989333,4.68404387 L8.92426407,4.74730881 L11.0455844,6.86862915 C11.279899,7.10294373 11.279899,7.48284271 11.0455844,7.71715729 C10.8347013,7.92804041 10.5058948,7.94912872 10.271427,7.78042222 L10.1970563,7.71715729 L9.09967966,6.61857288 L9.1,10.5 C9.1,10.8313708 8.83137085,11.1 8.5,11.1 C8.20176624,11.1 7.95435325,10.8824104 7.90785299,10.5973231 L7.9,10.5 L7.89967966,6.61857288 L6.80294373,7.71715729 C6.59206061,7.92804041 6.26325412,7.94912872 6.02878632,7.78042222 L5.95441559,7.71715729 C5.74353247,7.50627417 5.72244416,7.17746768 5.89115065,6.94299989 L5.95441559,6.86862915 L8.07573593,4.74730881 C8.28661905,4.53642569 8.61542554,4.51533738 8.84989333,4.68404387 Z" fill="#FFFFFF"></path>
                                        </g>
                                    </g>
                                </g>
                            </g>
                        </g>
                    </g>
                </g>
            </g>
        </g>
    </g>
</svg>