<?xml version="1.0" encoding="UTF-8"?>
<svg width="24px" height="24px" viewBox="0 0 24 24" version="1.1" xmlns="http://www.w3.org/2000/svg" xmlns:xlink="http://www.w3.org/1999/xlink">
    <title>icon_arrow_down</title>
    <g id="appUI" stroke="none" stroke-width="1" fill="none" fill-rule="evenodd">
        <g id="4.1.5-详细信息" transform="translate(-16.000000, -54.000000)" fill="#121212" fill-rule="nonzero">
            <g id="Bars/Navigation-Bar/iPhone---Compact/Light/Default">
                <g id="icon/menu" transform="translate(16.000000, 54.000000)">
                    <g id="编组">
                        <path d="M12.2936879,3.25 C12.6733837,3.25 12.9871789,3.53215388 13.0368413,3.89822944 L13.0436879,4 L13.0436407,18.591 L17.7123106,13.9247635 C17.9785772,13.6584969 18.3952408,13.6342908 18.6888523,13.8521453 L18.7729708,13.9247635 C19.0392373,14.19103 19.0634434,14.6076937 18.8455889,14.9013052 L18.7729708,14.9854236 L12.7729708,20.9854236 C12.5067042,21.2516902 12.0900405,21.2758962 11.796429,21.0580418 L11.7123106,20.9854236 L5.7123106,14.9854236 C5.41941738,14.6925304 5.41941738,14.2176567 5.7123106,13.9247635 C5.97857716,13.6584969 6.39524085,13.6342908 6.68885234,13.8521453 L6.77297077,13.9247635 L11.5436407,18.695 L11.5436879,4 C11.5436879,3.58578644 11.8794744,3.25 12.2936879,3.25 Z" id="路径"></path>
                    </g>
                </g>
            </g>
        </g>
    </g>
</svg>