<?xml version="1.0" encoding="UTF-8"?>
<svg width="24px" height="24px" viewBox="0 0 24 24" version="1.1" xmlns="http://www.w3.org/2000/svg" xmlns:xlink="http://www.w3.org/1999/xlink">
    <title>icon_information</title>
    <g id="appUI" stroke="none" stroke-width="1" fill="none" fill-rule="evenodd">
        <g id="4.1.4-快速跳转" transform="translate(-315.000000, -128.000000)" fill="#4D8CEB">
            <g id="dialog-principle-flatten" transform="translate(16.000000, 108.000000)">
                <g id="icon/详情" transform="translate(299.000000, 20.000000)">
                    <g id="编组">
                        <g transform="translate(2.000000, 2.000000)" id="形状">
                            <path d="M10,0 C15.523,0 20,4.477 20,10 C20,15.523 15.523,20 10,20 C4.477,20 0,15.523 0,10 C0,4.477 4.477,0 10,0 Z M10,8.75 C9.62030423,8.75 9.30650904,9.03215388 9.25684662,9.39822944 L9.25,9.5 L9.25,14.5 L9.25684662,14.6017706 C9.30650904,14.9678461 9.62030423,15.25 10,15.25 C10.3796958,15.25 10.693491,14.9678461 10.7431534,14.6017706 L10.75,14.5 L10.75,9.5 L10.7431534,9.39822944 C10.693491,9.03215388 10.3796958,8.75 10,8.75 Z M10,5 C9.44771525,5 9,5.44771525 9,6 C9,6.55228475 9.44771525,7 10,7 C10.5522847,7 11,6.55228475 11,6 C11,5.44771525 10.5522847,5 10,5 Z"></path>
                        </g>
                    </g>
                </g>
            </g>
        </g>
    </g>
</svg>