<?xml version="1.0" encoding="UTF-8"?>
<svg width="36px" height="36px" viewBox="0 0 36 36" version="1.1" xmlns="http://www.w3.org/2000/svg" xmlns:xlink="http://www.w3.org/1999/xlink">
    <title>icon_registor_close</title>
    <g id="appUI" stroke="none" stroke-width="1" fill="none" fill-rule="evenodd">
        <g id="4.3.1-port选择备份" transform="translate(-308.000000, -293.000000)">
            <g id="dialogport-principle-flatten" transform="translate(16.000000, 278.000000)">
                <g id="icon/关闭" transform="translate(292.000000, 15.000000)">
                    <g id="关闭">
                        <circle id="椭圆形" fill-opacity="0.041199" fill="#000000" cx="18" cy="18" r="18"></circle>
                        <g id="icon/关闭" transform="translate(6.000000, 6.000000)" fill="#888D95">
                            <g id="编组">
                                <path d="M8.24497253,6.91011531 L8.32806999,6.97954185 L12.4998059,11.1508059 L16.67193,6.97954185 C16.9062446,6.74522728 17.2861436,6.74522728 17.5204581,6.97954185 C17.7287378,7.18782148 17.7518799,7.51113076 17.5898847,7.74497253 L17.5204581,7.82806999 L13.3478059,11.9998059 L17.5204581,16.17193 C17.7547727,16.4062446 17.7547727,16.7861436 17.5204581,17.0204581 C17.3121785,17.2287378 16.9888692,17.2518799 16.7550275,17.0898847 L16.67193,17.0204581 L12.4998059,12.8478059 L8.32806999,17.0204581 C8.09375542,17.2547727 7.71385643,17.2547727 7.47954185,17.0204581 C7.27126223,16.8121785 7.24812005,16.4888692 7.41011531,16.2550275 L7.47954185,16.17193 L11.6508059,11.9998059 L7.47954185,7.82806999 C7.24522728,7.59375542 7.24522728,7.21385643 7.47954185,6.97954185 C7.68782148,6.77126223 8.01113076,6.74812005 8.24497253,6.91011531 Z" id="路径" fill-rule="nonzero"></path>
                            </g>
                        </g>
                    </g>
                </g>
            </g>
        </g>
    </g>
</svg>