<?xml version="1.0" encoding="UTF-8"?>
<svg width="33px" height="32px" viewBox="0 0 33 32" version="1.1" xmlns="http://www.w3.org/2000/svg" xmlns:xlink="http://www.w3.org/1999/xlink">
    <title>icon_more_period</title>
    <g id="appUI" stroke="none" stroke-width="1" fill="none" fill-rule="evenodd">
        <g id="设备管理-更多操作" transform="translate(-289.000000, -513.000000)" fill="#AE63EE">
            <g id="编组-principle-flatten" transform="translate(0.000000, 400.000000)">
                <g id="list/更多操作/card3备份-2" transform="translate(252.000000, 98.000000)">
                    <g id="list/更多操作/card3">
                        <g id="icon/更多操作/io配置/面" transform="translate(37.500000, 15.000000)">
                            <g id="编组">
                                <path d="M23.411274,18.4623335 C23.4907575,18.9870037 23.8049057,19.4468975 24.2647396,19.7117547 C24.7242113,19.9775287 25.279744,20.0194708 25.7739111,19.8256956 C26.1747926,20.2745009 26.4784546,20.8014132 26.6657936,21.373284 C26.2513412,21.7045386 26.0103145,22.2065169 26.0109607,22.7370827 C26.0109607,23.2888885 26.266782,23.7808863 26.6666667,24.1008813 C26.4782195,24.6722788 26.1741809,25.1987739 25.7734746,25.6475966 C25.2794341,25.4539624 24.7240956,25.4959021 24.2647396,25.7615375 C23.8052903,26.0263082 23.4913448,26.485819 23.4117106,27.0100856 C22.8228891,27.1338604 22.2148254,27.1344549 21.625763,27.0118318 C21.5466535,26.4866792 21.2324582,26.0262343 20.7722975,25.761101 C20.3127576,25.4954703 19.7572274,25.4536891 19.2631259,25.6475966 C18.8621926,25.1986631 18.5585278,24.6715973 18.3712435,24.0995716 C18.7854564,23.768508 19.0264568,23.2669057 19.0260764,22.7366461 C19.0265106,22.205933 18.7851499,21.7039284 18.3703704,21.3728474 C18.5588175,20.80145 18.8628562,20.2749549 19.2635624,19.8261321 C19.7576029,20.0197663 20.3129414,19.9778267 20.7722975,19.7121912 C21.2317467,19.4474206 21.5456922,18.9879097 21.6253264,18.4636431 L21.6253264,18.4632066 C22.2142082,18.3397198 22.8222719,18.3394225 23.411274,18.4623335 Z M16,5.33333333 C21.8910373,5.33333333 26.6666667,10.1089627 26.6666667,16 C26.6666667,16.8724263 26.5619286,17.7203898 26.3643407,18.5320021 C26.0207682,18.3751739 25.6209722,18.3580108 25.2547123,18.5016304 C25.1637286,18.5373074 25.0614467,18.5295852 24.976851,18.4806522 C24.8899255,18.4305817 24.8320861,18.3459083 24.817452,18.2493086 C24.7284434,17.6617627 24.2835191,17.1914923 23.7018002,17.0701013 C22.9202031,16.9070003 22.1134941,16.9075418 21.3324509,17.0719032 C20.7519988,17.1940527 20.3083107,17.6636239 20.2192328,18.2500625 C20.2045709,18.3465879 20.1467688,18.4311908 20.0621773,18.479939 C19.9757555,18.529913 19.8735093,18.5376347 19.7825491,18.5019837 C19.2288936,18.2849841 18.5986789,18.4353521 18.2026401,18.878947 C17.6719495,19.4733624 17.2692843,20.1706462 17.0197072,20.9273981 C16.8334225,21.492239 17.018289,22.1133466 17.4831293,22.4843866 C17.5594964,22.5453436 17.6039346,22.6377702 17.6038546,22.7354825 C17.6039246,22.8352952 17.5595528,22.9276478 17.4832899,22.9886016 C17.0198273,23.3590285 16.8350112,23.9782449 17.0196206,24.5421004 C17.2369351,25.2058477 17.572411,25.8239472 18.0090693,26.3669288 L18.1513333,26.5343333 L18.0889404,26.4622074 C17.4134155,26.5963329 16.7149214,26.6666667 16,26.6666667 C10.1089627,26.6666667 5.33333333,21.8910373 5.33333333,16 C5.33333333,10.1089627 10.1089627,5.33333333 16,5.33333333 Z M22.5185185,21.4274169 C21.7952101,21.4274169 21.2088527,22.0137742 21.2088527,22.7370827 C21.2088527,23.4603911 21.7952101,24.0467485 22.5185185,24.0467485 C23.241827,24.0467485 23.8281843,23.4603911 23.8281843,22.7370827 C23.8281843,22.0137742 23.241827,21.4274169 22.5185185,21.4274169 Z M16,9.36296296 C15.6399922,9.36296296 15.3424678,9.63048664 15.2953805,9.97758051 L15.2888889,10.0740741 L15.2883333,15.7723333 L12.4583821,19.7348232 L12.3989123,19.8340938 C12.2473688,20.1410719 12.336088,20.5213573 12.6237121,20.7268031 C12.9142414,20.934324 13.3076983,20.8920154 13.5483397,20.642501 L13.6156919,20.5614731 L16.5786549,16.4133249 L16.5923417,16.3935972 C16.6058572,16.3732978 16.618357,16.352264 16.6297686,16.3305685 L16.6381247,16.3140544 L16.6456858,16.2982489 L16.6456858,16.2982489 C16.6548317,16.2785928 16.6631153,16.2582956 16.6704638,16.2375562 C16.6751683,16.2242304 16.6792866,16.2114323 16.6830274,16.1985653 L16.7038967,16.1017775 L16.7038967,16.1017775 L16.7111111,16 L16.7111111,10.0740741 L16.7018039,9.95872816 C16.6466924,9.62084695 16.3534622,9.36296296 16,9.36296296 Z" id="形状结合"></path>
                            </g>
                        </g>
                    </g>
                </g>
            </g>
        </g>
    </g>
</svg>