<?xml version="1.0" encoding="UTF-8"?>
<svg width="33px" height="32px" viewBox="0 0 33 32" version="1.1" xmlns="http://www.w3.org/2000/svg" xmlns:xlink="http://www.w3.org/1999/xlink">
    <title>icon_delete</title>
    <g id="appUI" stroke="none" stroke-width="1" fill="none" fill-rule="evenodd">
        <g id="设备管理-更多操作" transform="translate(-289.000000, -610.000000)" fill="#F1544F" fill-rule="nonzero">
            <g id="编组-principle-flatten" transform="translate(0.000000, 400.000000)">
                <g id="list/更多操作/card3备份-7" transform="translate(252.000000, 195.000000)">
                    <g id="list/更多操作/card3">
                        <g id="icon/更多操作/io配置/面" transform="translate(38.000000, 15.000000)">
                            <g id="编组">
                                <g transform="translate(2.666667, 2.666667)" id="形状">
                                    <path d="M6.66666667,5.33333333 L6.66666667,1.33333333 C6.66666667,0.596953667 7.26362033,0 8,0 L18.6666667,0 C19.4030463,0 20,0.596953667 20,1.33333333 L20,5.33333333 L26.6666667,5.33333333 L26.6666667,8 L24,8 L24,25.3333333 C24,26.069713 23.4030463,26.6666667 22.6666667,26.6666667 L4,26.6666667 C3.26362033,26.6666667 2.66666667,26.069713 2.66666667,25.3333333 L2.66666667,8 L0,8 L0,5.33333333 L6.66666667,5.33333333 Z M15.2186667,16 L17.576,13.6426667 L15.6906667,11.7573333 L13.3333333,14.1146667 L10.976,11.7573333 L9.09066667,13.6426667 L11.448,16 L9.09066667,18.3573333 L10.976,20.2426667 L13.3333333,17.8853333 L15.6906667,20.2426667 L17.576,18.3573333 L15.2186667,16 Z M9.33333333,2.66666667 L9.33333333,5.33333333 L17.3333333,5.33333333 L17.3333333,2.66666667 L9.33333333,2.66666667 Z"></path>
                                </g>
                            </g>
                        </g>
                    </g>
                </g>
            </g>
        </g>
    </g>
</svg>