<?xml version="1.0" encoding="UTF-8"?>
<svg width="24px" height="24px" viewBox="0 0 24 24" version="1.1" xmlns="http://www.w3.org/2000/svg" xmlns:xlink="http://www.w3.org/1999/xlink">
    <title>icon_more</title>
    <g id="appUI" stroke="none" stroke-width="1" fill="none" fill-rule="evenodd">
        <g id="4.1.1-I/O配置" transform="translate(-335.000000, -56.000000)" fill="#121212">
            <g id="icon/详情备份" transform="translate(335.000000, 56.000000)">
                <g id="编组">
                    <path d="M12,3 C10.9,3 10,3.9 10,5 C10,6.1 10.9,7 12,7 C13.1,7 14,6.1 14,5 C14,3.9 13.1,3 12,3 Z M12,17 C10.9,17 10,17.9 10,19 C10,20.1 10.9,21 12,21 C13.1,21 14,20.1 14,19 C14,17.9 13.1,17 12,17 Z M12,10 C10.9,10 10,10.9 10,12 C10,13.1 10.9,14 12,14 C13.1,14 14,13.1 14,12 C14,10.9 13.1,10 12,10 Z" id="形状"></path>
                </g>
            </g>
        </g>
    </g>
</svg>