<?xml version="1.0" encoding="UTF-8"?>
<svg width="33px" height="32px" viewBox="0 0 33 32" version="1.1" xmlns="http://www.w3.org/2000/svg" xmlns:xlink="http://www.w3.org/1999/xlink">
    <title>icon_more_fota</title>
    <g id="appUI" stroke="none" stroke-width="1" fill="none" fill-rule="evenodd">
        <g id="设备管理-更多操作" transform="translate(-53.000000, -610.000000)" fill="#26C464" fill-rule="nonzero">
            <g id="编组-principle-flatten" transform="translate(0.000000, 400.000000)">
                <g id="list/更多操作/card3备份-3" transform="translate(16.000000, 195.000000)">
                    <g id="list/更多操作/card3">
                        <g id="icon/更多操作/io配置/面" transform="translate(38.000000, 15.000000)">
                            <g id="编组">
                                <path d="M16,5.33333333 C20.3901548,5.33333333 24.0967693,8.59493262 24.6552337,12.9494219 C27.2575566,14.5684255 28.5247824,17.6764267 27.7964019,20.6534586 C27.0680214,23.6304905 24.5089934,25.8023348 21.4531463,26.0369729 L21.4531463,26.0576948 L10.5468537,26.0576948 L10.5468537,26.0369729 C7.49100656,25.8023348 4.93197856,23.6304905 4.20359809,20.6534586 C3.47521762,17.6764267 4.74244343,14.5684255 7.34476626,12.9494219 C7.9032307,8.59493262 11.6098452,5.33333333 16,5.33333333 Z M17.1331911,12.9120585 C16.8205674,12.6871165 16.3821587,12.7152343 16.1009812,12.9964117 L16.1009812,12.9964117 L13.2725541,15.8248389 L13.1882009,15.9239998 C12.9632589,16.2366236 12.9913766,16.6750322 13.2725541,16.9562097 L13.2725541,16.9562097 L13.3717151,17.040563 C13.6843388,17.265505 14.1227475,17.2373872 14.403925,16.9562097 L14.403925,16.9562097 L15.866,15.4913333 L15.8666667,20.6666667 L15.8771373,20.7964308 C15.9391377,21.1765472 16.2690216,21.4666667 16.6666667,21.4666667 C17.1084945,21.4666667 17.4666667,21.1084945 17.4666667,20.6666667 L17.4666667,20.6666667 L17.466,15.4913333 L18.9294084,16.9562097 L19.0285693,17.040563 C19.3411931,17.265505 19.7796017,17.2373872 20.0607792,16.9562097 C20.3731986,16.6437903 20.3731986,16.1372583 20.0607792,15.8248389 L20.0607792,15.8248389 L17.2323521,12.9964117 Z" id="形状结合"></path>
                            </g>
                        </g>
                    </g>
                </g>
            </g>
        </g>
    </g>
</svg>