<?xml version="1.0" encoding="UTF-8"?>
<svg width="24px" height="24px" viewBox="0 0 24 24" version="1.1" xmlns="http://www.w3.org/2000/svg" xmlns:xlink="http://www.w3.org/1999/xlink">
    <title>icon_confi_information</title>
    <g id="appUI" stroke="none" stroke-width="1" fill="none" fill-rule="evenodd">
        <g id="4.3.3-下发写值命令" transform="translate(-244.000000, -125.000000)" fill="#4D8CEB" fill-rule="nonzero">
            <g id="icon/详情/线" transform="translate(244.000000, 125.000000)">
                <g id="编组">
                    <g transform="translate(1.000000, 1.000000)" id="形状">
                        <path d="M11,0.4 C16.8543708,0.4 21.6,5.14562915 21.6,11 C21.6,16.8543708 16.8543708,21.6 11,21.6 C5.14562915,21.6 0.4,16.8543708 0.4,11 C0.4,5.14562915 5.14562915,0.4 11,0.4 Z M11,1.6 C5.80837085,1.6 1.6,5.80837085 1.6,11 C1.6,16.1916292 5.80837085,20.4 11,20.4 C16.1916292,20.4 20.4,16.1916292 20.4,11 C20.4,5.80837085 16.1916292,1.6 11,1.6 Z M11,9.9 C11.2982338,9.9 11.5456468,10.1175896 11.592147,10.4026769 L11.6,10.5 L11.6,15.5 C11.6,15.8313708 11.3313708,16.1 11,16.1 C10.7017662,16.1 10.4543532,15.8824104 10.407853,15.5973231 L10.4,15.5 L10.4,10.5 C10.4,10.1686292 10.6686292,9.9 11,9.9 Z M11,6 C11.5522847,6 12,6.44771525 12,7 C12,7.55228475 11.5522847,8 11,8 C10.4477153,8 10,7.55228475 10,7 C10,6.44771525 10.4477153,6 11,6 Z"></path>
                    </g>
                </g>
            </g>
        </g>
    </g>
</svg>