<?xml version="1.0" encoding="UTF-8"?>
<svg width="24px" height="24px" viewBox="0 0 24 24" version="1.1" xmlns="http://www.w3.org/2000/svg" xmlns:xlink="http://www.w3.org/1999/xlink">
    <title>icon_calendar</title>
    <g id="appUI" stroke="none" stroke-width="1" fill="none" fill-rule="evenodd">
        <g id="5.1.5-告警日志-筛选" transform="translate(-40.000000, -231.000000)" fill="#6B6F70" fill-rule="nonzero">
            <g id="时间段" transform="translate(25.000000, 191.000000)">
                <g id="编组" transform="translate(15.000000, 40.000000)">
                    <path d="M5,4.4 C5.33137085,4.4 5.6,4.66862915 5.6,5 C5.6,5.29823376 5.38241039,5.54564675 5.09732312,5.59214701 L5,5.6 L4,5.6 C3.80670034,5.6 3.64542508,5.7371128 3.60812658,5.91938605 L3.6,6 L3.599,8.9 L20.399,8.9 L20.4,6 C20.4,5.80670034 20.2628872,5.64542508 20.080614,5.60812658 L20,5.6 L19,5.6 C18.6686292,5.6 18.4,5.33137085 18.4,5 C18.4,4.70176624 18.6175896,4.45435325 18.9026769,4.40785299 L19,4.4 L20,4.4 C20.8345636,4.4 21.5198898,5.03896152 21.5934613,5.85436739 L21.6,6 L21.6,20 C21.6,20.8345636 20.9610385,21.5198898 20.1456326,21.5934613 L20,21.6 L4,21.6 C3.16543638,21.6 2.48011021,20.9610385 2.40653868,20.1456326 L2.4,20 L2.4,6 C2.4,5.16543638 3.03896152,4.48011021 3.85436739,4.40653868 L4,4.4 L5,4.4 Z M20.399,10.1 L3.599,10.1 L3.6,20 C3.6,20.1932997 3.7371128,20.3545749 3.91938605,20.3918734 L4,20.4 L20,20.4 C20.1932997,20.4 20.3545749,20.2628872 20.3918734,20.080614 L20.4,20 L20.399,10.1 Z M8,15.9 C8.33137085,15.9 8.6,16.1686292 8.6,16.5 C8.6,16.7982338 8.38241039,17.0456468 8.09732312,17.092147 L8,17.1 L6,17.1 C5.66862915,17.1 5.4,16.8313708 5.4,16.5 C5.4,16.2017662 5.61758961,15.9543532 5.90267688,15.907853 L6,15.9 L8,15.9 Z M13,15.9 C13.3313708,15.9 13.6,16.1686292 13.6,16.5 C13.6,16.7982338 13.3824104,17.0456468 13.0973231,17.092147 L13,17.1 L11,17.1 C10.6686292,17.1 10.4,16.8313708 10.4,16.5 C10.4,16.2017662 10.6175896,15.9543532 10.9026769,15.907853 L11,15.9 L13,15.9 Z M18,15.9 C18.3313708,15.9 18.6,16.1686292 18.6,16.5 C18.6,16.7982338 18.3824104,17.0456468 18.0973231,17.092147 L18,17.1 L16,17.1 C15.6686292,17.1 15.4,16.8313708 15.4,16.5 C15.4,16.2017662 15.6175896,15.9543532 15.9026769,15.907853 L16,15.9 L18,15.9 Z M8,12.4 C8.33137085,12.4 8.6,12.6686292 8.6,13 C8.6,13.2982338 8.38241039,13.5456468 8.09732312,13.592147 L8,13.6 L6,13.6 C5.66862915,13.6 5.4,13.3313708 5.4,13 C5.4,12.7017662 5.61758961,12.4543532 5.90267688,12.407853 L6,12.4 L8,12.4 Z M13,12.4 C13.3313708,12.4 13.6,12.6686292 13.6,13 C13.6,13.2982338 13.3824104,13.5456468 13.0973231,13.592147 L13,13.6 L11,13.6 C10.6686292,13.6 10.4,13.3313708 10.4,13 C10.4,12.7017662 10.6175896,12.4543532 10.9026769,12.407853 L11,12.4 L13,12.4 Z M18,12.4 C18.3313708,12.4 18.6,12.6686292 18.6,13 C18.6,13.2982338 18.3824104,13.5456468 18.0973231,13.592147 L18,13.6 L16,13.6 C15.6686292,13.6 15.4,13.3313708 15.4,13 C15.4,12.7017662 15.6175896,12.4543532 15.9026769,12.407853 L16,12.4 L18,12.4 Z M7.5,2.75 C7.87969577,2.75 8.19349096,3.03215388 8.24315338,3.39822944 L8.25,3.5 L8.25,6.5 C8.25,6.91421356 7.91421356,7.25 7.5,7.25 C7.12030423,7.25 6.80650904,6.96784612 6.75684662,6.60177056 L6.75,6.5 L6.75,3.5 C6.75,3.08578644 7.08578644,2.75 7.5,2.75 Z M16.5,2.75 C16.8796958,2.75 17.193491,3.03215388 17.2431534,3.39822944 L17.25,3.5 L17.25,6.5 C17.25,6.91421356 16.9142136,7.25 16.5,7.25 C16.1203042,7.25 15.806509,6.96784612 15.7568466,6.60177056 L15.75,6.5 L15.75,3.5 C15.75,3.08578644 16.0857864,2.75 16.5,2.75 Z M14,4.4 C14.3313708,4.4 14.6,4.66862915 14.6,5 C14.6,5.29823376 14.3824104,5.54564675 14.0973231,5.59214701 L14,5.6 L10,5.6 C9.66862915,5.6 9.4,5.33137085 9.4,5 C9.4,4.70176624 9.61758961,4.45435325 9.90267688,4.40785299 L10,4.4 L14,4.4 Z" id="形状"></path>
                </g>
            </g>
        </g>
    </g>
</svg>