<?xml version="1.0" encoding="UTF-8"?>
<svg width="24px" height="24px" viewBox="0 0 24 24" version="1.1" xmlns="http://www.w3.org/2000/svg" xmlns:xlink="http://www.w3.org/1999/xlink">
    <title>icon_device_update</title>
    <g id="appUI" stroke="none" stroke-width="1" fill="none" fill-rule="evenodd">
        <g id="4.3.2-数字量P0_B" transform="translate(-34.000000, -198.000000)" fill="#FFFFFF">
            <g id="编组" transform="translate(25.000000, 186.000000)">
                <g id="联动配置-principle-flatten备份">
                    <g id="channel配置">
                        <g id="icon/列表备份" transform="translate(9.000000, 12.000000)">
                            <g id="编组">
                                <path d="M9.692,18.25 L11.3370874,19.89483 L11.4330923,19.9787317 C11.7671504,20.2329793 12.2328496,20.2329793 12.5669077,19.9787317 L12.6629126,19.89483 L14.307,18.25 L21,18.25 C21.5522847,18.25 22,18.6977153 22,19.25 L22,21 C22,21.5522847 21.5522847,22 21,22 L3,22 C2.44771525,22 2,21.5522847 2,21 L2,19.25 C2,18.6977153 2.44771525,18.25 3,18.25 L9.692,18.25 Z M12,2.5 C12.3796958,2.5 12.693491,2.78215388 12.7431534,3.14822944 L12.75,3.25 L12.7495826,15.858 L15.8890873,12.7196699 C16.1575727,12.4511845 16.5789724,12.4288107 16.8729435,12.6525486 L16.9497475,12.7196699 C17.2182329,12.9881554 17.2406067,13.409555 17.0168688,13.7035261 L16.9497475,13.7803301 L12.5303301,18.1997475 C12.2618446,18.4682329 11.840445,18.4906067 11.5464739,18.2668688 L11.4696699,18.1997475 L7.05025253,13.7803301 C6.75735931,13.4874369 6.75735931,13.0125631 7.05025253,12.7196699 C7.31873798,12.4511845 7.74013762,12.4288107 8.03410876,12.6525486 L8.1109127,12.7196699 L11.2495826,15.858 L11.25,3.25 C11.25,2.83578644 11.5857864,2.5 12,2.5 Z" id="形状"></path>
                            </g>
                        </g>
                    </g>
                </g>
            </g>
        </g>
    </g>
</svg>