<?xml version="1.0" encoding="UTF-8"?>
<svg width="30px" height="30px" viewBox="0 0 30 30" version="1.1" xmlns="http://www.w3.org/2000/svg" xmlns:xlink="http://www.w3.org/1999/xlink">
    <title>icon_info_label</title>
    <g id="appUI" stroke="none" stroke-width="1" fill="none" fill-rule="evenodd">
        <g id="4.1.5-详细信息" transform="translate(-35.000000, -162.000000)">
            <g id="module_0-principle-flatten" transform="translate(20.000000, 147.000000)">
                <g id="编组-2" transform="translate(15.000000, 15.000000)">
                    <circle id="椭圆形" fill-opacity="0.06" fill="#000000" cx="15" cy="15" r="15"></circle>
                    <g id="icon/设备名称" transform="translate(3.000000, 3.000000)" fill="#6B6F70">
                        <g id="编组">
                            <g id="编组-2" transform="translate(2.773785, 2.442266)">
                                <path d="M3.4153877,1.59529928 C3.40789325,1.08555475 3.78305754,0.659207753 4.27515867,0.590149484 L4.4004663,0.580486933 L9.97015151,0.663171079 C10.3114274,0.66826475 10.6392223,0.789508932 10.9006186,1.00452046 L11.0084261,1.10234386 L18.7570001,8.85091787 C19.3083285,9.40224628 19.3407596,10.2759762 18.8542934,10.8652342 L18.7570001,10.9722382 L17.3430867,12.3875253 C17.292067,12.0272838 17.1624102,11.6760388 16.9541163,11.361523 L18.0498933,10.2651314 C18.2234597,10.0915651 18.2427448,9.82214068 18.1077488,9.62727254 L18.0498933,9.55802465 L10.3013193,1.80945064 C10.2323635,1.74049481 10.1452955,1.69371933 10.0512233,1.6738227 L9.9552278,1.66305971 L4.41546039,1.58044595 L4.42811744,2.45153063 L3.42756135,2.43668139 L3.4153877,1.59529928 Z" id="路径" fill-rule="nonzero"></path>
                                <path d="M0.578854363,4.42529928 L0.661652188,9.96513707 C0.667473526,10.3551667 0.825001655,10.7275884 1.10082497,11.0034117 L8.84939898,18.7519857 C9.43518542,19.3377721 10.3849329,19.3377721 10.9707193,18.7519857 L15.9204668,13.8022382 C16.5062532,13.2164518 16.5062532,12.2667043 15.9204668,11.6809179 L8.17189278,3.93234386 C7.89606947,3.65652055 7.52364781,3.49899242 7.13361818,3.49317108 L1.56393297,3.41048693 C1.01170972,3.41872907 0.570725904,3.87307603 0.578854363,4.42529928 Z M1.66154082,9.95021336 L1.57892706,4.41044595 L7.11869446,4.49305971 C7.24870434,4.49500016 7.37284489,4.54750954 7.464786,4.63945064 L15.21336,12.3880247 C15.4086222,12.5832868 15.4086222,12.8998693 15.21336,13.0951314 L10.2636125,18.0448789 C10.0683504,18.240141 9.75176791,18.240141 9.55650576,18.0448789 L1.80793175,10.2963049 C1.71599065,10.2043638 1.66348127,10.0802232 1.66154082,9.95021336 Z" id="形状" fill-rule="nonzero"></path>
                                <circle id="椭圆形" cx="4.1962155" cy="7.02773439" r="1"></circle>
                            </g>
                        </g>
                    </g>
                </g>
            </g>
        </g>
    </g>
</svg>