<?xml version="1.0" encoding="UTF-8"?>
<svg width="24px" height="24px" viewBox="0 0 24 24" version="1.1" xmlns="http://www.w3.org/2000/svg" xmlns:xlink="http://www.w3.org/1999/xlink">
    <title>icon_people</title>
    <g id="appUI" stroke="none" stroke-width="1" fill="none" fill-rule="evenodd">
        <g id="5.4.1-编辑日志" transform="translate(-36.000000, -173.000000)" fill="#FFFFFF" fill-rule="nonzero">
            <g id="infor" transform="translate(16.000000, 161.000000)">
                <g id="编组" transform="translate(20.000000, 12.000000)">
                    <path d="M18.1869442,17.25 C18.1713192,17.171875 18.1713192,17.09375 18.1556941,17 C18.1244442,16.75 18.0306942,16.546875 17.9056942,16.390625 C17.7806942,16.234375 17.6244442,16.09375 17.4525691,15.984375 C17.2650691,15.859375 17.0619441,15.765625 16.8588192,15.703125 C16.6400692,15.640625 16.4213191,15.5625 16.1869441,15.5 C15.9525691,15.4375 15.7338192,15.359375 15.5150692,15.296875 C15.2963192,15.21875 15.1088192,15.125 14.9213191,15.015625 C14.7181941,14.890625 14.5619442,14.765625 14.4525691,14.65625 C14.3744442,14.5625 14.2963191,14.46875 14.2338192,14.34375 C14.2025692,14.28125 14.1869442,14.234375 14.1713191,14.171875 C14.1400692,14.078125 14.1244441,14 14.1244441,13.90625 C14.1244441,13.78125 14.1244441,13.625 14.1400692,13.46875 C14.1556942,13.265625 14.2338192,13.078125 14.3744442,12.921875 C14.4681942,12.828125 14.5619442,12.75 14.6556942,12.671875 C14.7181942,12.625 14.7963192,12.578125 14.8588192,12.515625 C14.9525692,12.4375 15.0150692,12.328125 15.0775692,12.21875 C15.1400692,12.09375 15.1869442,11.96875 15.2494441,11.84375 C15.2806941,11.75 15.3275691,11.640625 15.3744442,11.546875 C15.4056942,11.5 15.4213192,11.4375 15.4369441,11.375 C15.5463192,11.046875 15.6088191,10.78125 15.6556942,10.53125 C15.7181942,10.234375 15.7494442,9.9375 15.7806942,9.546875 C15.7963192,8.828125 15.7025692,8.109375 15.4994442,7.421875 C15.4994442,7.40624999 15.4838191,7.375 15.4838191,7.359375 C15.4056942,7.03125 15.2650692,6.734375 15.0775692,6.453125 C15.0619441,6.4375 15.0463192,6.40625 15.0306942,6.390625 L15.0150691,6.375 C14.9994441,6.34375001 14.9681941,6.3125 14.9525692,6.28125 C14.9213192,6.25000001 14.9056942,6.21875 14.8744441,6.171875 L14.8588192,6.15625 C14.7025692,5.96875 14.5463192,5.81249999 14.3744442,5.6875 C14.1400692,5.515625 13.9056942,5.375 13.6556941,5.28125 C13.4056942,5.15625 13.1556942,5.09375 12.9056941,5.046875 C12.6556942,5.015625 12.4213192,5 12.2025691,5 L12.0463192,5 C11.8119442,5 11.5775692,5.015625 11.3431942,5.046875 C11.0931942,5.078125 10.8431942,5.15625 10.6088191,5.25 C10.3588191,5.34375 10.1244441,5.484375 9.89006916,5.65625 C9.71819416,5.78125 9.56194416,5.9375 9.40569415,6.125 L9.39006915,6.140625 C9.35881915,6.171875 9.34319415,6.20312501 9.31194415,6.25 C9.29631915,6.28124999 9.26506915,6.3125 9.24944415,6.34375 L9.23381916,6.359375 C9.21819415,6.375 9.20256916,6.40625 9.18694416,6.421875 C8.99944416,6.703125 8.85881916,7 8.78069415,7.328125 C8.78069415,7.34375 8.76506914,7.375 8.76506916,7.390625 C8.56194415,8.078125 8.46819415,8.796875 8.48381916,9.515625 C8.49944416,9.90625001 8.54631916,10.203125 8.60881915,10.5 C8.65569415,10.75 8.71819416,11.03125 8.82756915,11.34375 C8.84319415,11.40625 8.87444415,11.453125 8.89006915,11.515625 C8.93694415,11.625 8.98381915,11.71875 9.01506915,11.8125 C9.06194415,11.9375 9.12444415,12.0625 9.18694416,12.1875 C9.23381916,12.296875 9.31194415,12.40625 9.40569415,12.484375 C9.46819416,12.53125 9.54631915,12.59375 9.60881916,12.640625 C9.70256916,12.71875 9.79631916,12.8125 9.89006916,12.890625 C10.0306942,13.046875 10.1088192,13.234375 10.1244442,13.4375 C10.1400692,13.59375 10.1400692,13.734375 10.1400691,13.875 C10.1400691,13.953125 10.1244441,14.03125 10.1088192,14.109375 L10.1088192,14.140625 C10.0931941,14.203125 10.0619442,14.25 10.0463191,14.3125 C10.0150692,14.359375 9.99944415,14.390625 9.96819415,14.4375 C9.95256915,14.46875 9.92131915,14.5 9.90569415,14.53125 C9.89006914,14.5625 9.85881915,14.59375 9.84319416,14.609375 C9.73381915,14.71875 9.57756916,14.84375 9.37444416,14.96875 C9.20256916,15.078125 8.99944416,15.171875 8.78069415,15.25 C8.56194414,15.328125 8.34319414,15.390625 8.10881916,15.453125 C7.87444417,15.515625 7.65569416,15.59375 7.43694415,15.65625 C7.23381915,15.71875 7.03069416,15.8125 6.84319416,15.9375 C6.65569416,16.046875 6.51506916,16.1875 6.39006915,16.34375 C6.26506915,16.5 6.18694414,16.703125 6.14006916,16.953125 C5.99944416,17.65625 5.96819415,18.1875 6.03069415,18.59375 C6.07756915,19 6.17131915,19.25 6.28069416,19.328125 C6.34319416,19.375 6.48381916,19.421875 6.71819415,19.484375 C6.95256915,19.53125 7.23381915,19.578125 7.56194415,19.640625 C7.92131914,19.6875 8.29631914,19.734375 8.65569415,19.78125 C9.06194415,19.828125 9.46819416,19.859375 9.87444415,19.90625 C10.1088192,19.921875 10.3275691,19.9375 10.5619441,19.953125 C10.7338191,19.96875 10.8900691,19.96875 11.0619442,19.984375 L11.5931941,19.984375 C11.7806941,19.984375 11.9681941,20 12.1556941,20 C12.3431941,20 12.5306941,20 12.7181941,19.984375 L13.2494442,19.984375 C13.4213191,19.96875 13.5775692,19.96875 13.7494441,19.953125 C13.9838191,19.9375 14.2025691,19.921875 14.4369442,19.90625 C14.8431942,19.875 15.2494442,19.828125 15.6556942,19.78125 C16.0150692,19.734375 16.3900692,19.6875 16.7494441,19.640625 C17.0775691,19.59375 17.3588191,19.546875 17.5931941,19.484375 C17.8275691,19.4375 17.9681941,19.390625 18.0306942,19.328125 C18.1400692,19.25 18.2181942,19 18.2806942,18.59375 C18.2650692,18.234375 18.2494442,17.78125 18.1869442,17.25 Z" id="路径"></path>
                </g>
            </g>
        </g>
    </g>
</svg>