<?xml version="1.0" encoding="UTF-8"?>
<svg width="18px" height="18px" viewBox="0 0 18 18" version="1.1" xmlns="http://www.w3.org/2000/svg" xmlns:xlink="http://www.w3.org/1999/xlink">
    <title>icon_set_alert</title>
    <g id="appUI" stroke="none" stroke-width="1" fill="none" fill-rule="evenodd">
        <g id="4.3.7-告警设置" transform="translate(-45.000000, -250.000000)" fill="#6B6F70">
            <g id="card/配置设备信息" transform="translate(25.000000, 186.000000)">
                <g id="编组-3">
                    <g id="编组" transform="translate(20.000000, 63.000000)">
                        <g id="icon/设备名称备份" transform="translate(0.000000, 1.000000)">
                            <g id="编组">
                                <g id="编组-2" transform="translate(1.330338, 1.081699)">
                                    <path d="M7.66966162,0.71830079 C11.6461118,0.71830079 14.8696616,3.94185059 14.8696616,7.91830079 C14.8696616,11.894751 11.6461118,15.1183008 7.66966162,15.1183008 C3.69321142,15.1183008 0.469661622,11.894751 0.469661622,7.91830079 C0.469661622,3.94185059 3.69321142,0.71830079 7.66966162,0.71830079 Z M7.66966162,1.61830079 C4.1902677,1.61830079 1.36966162,4.43890687 1.36966162,7.91830079 C1.36966162,11.3976947 4.1902677,14.2183008 7.66966162,14.2183008 C11.1490555,14.2183008 13.9696616,11.3976947 13.9696616,7.91830079 C13.9696616,4.43890687 11.1490555,1.61830079 7.66966162,1.61830079 Z M7.66966162,2.66830079 C10.5691566,2.66830079 12.9196616,5.01880585 12.9196616,7.91830079 C12.9196616,10.8177957 10.5691566,13.1683008 7.66966162,13.1683008 C4.77016669,13.1683008 2.41966162,10.8177957 2.41966162,7.91830079 C2.41966162,5.01880585 4.77016669,2.66830079 7.66966162,2.66830079 Z M7.66966162,4.63705079 C5.85747729,4.63705079 4.38841162,6.10611645 4.38841162,7.91830079 C4.38841162,9.73048513 5.85747729,11.1995508 7.66966162,11.1995508 C9.48184596,11.1995508 10.9509116,9.73048513 10.9509116,7.91830079 C10.9509116,6.10611645 9.48184596,4.63705079 7.66966162,4.63705079 Z" id="形状"></path>
                                </g>
                            </g>
                        </g>
                    </g>
                </g>
            </g>
        </g>
    </g>
</svg>