<?xml version="1.0" encoding="UTF-8"?>
<svg width="20px" height="20px" viewBox="0 0 20 20" version="1.1" xmlns="http://www.w3.org/2000/svg" xmlns:xlink="http://www.w3.org/1999/xlink">
    <title>icon_set_label</title>
    <g id="appUI" stroke="none" stroke-width="1" fill="none" fill-rule="evenodd">
        <g id="5.1.7-告警日志-筛选-选择channel" transform="translate(-61.000000, -223.000000)" fill="#B5B5B5" fill-rule="nonzero">
            <g id="dialog" transform="translate(16.000000, 118.000000)">
                <g id="tag/选择/channel/默认" transform="translate(25.000000, 88.000000)">
                    <g id="icon/设备名称" transform="translate(20.000000, 17.000000)">
                        <g id="编组-2" transform="translate(2.311487, 2.035221)">
                            <path d="M1.30327747,2.84207244 L5.94468181,2.9109759 C6.22907842,2.91522062 6.50224077,3.01625744 6.72007106,3.19543372 L6.80991065,3.27695322 L13.2670557,9.73409823 C13.7247013,10.1917439 13.7533042,10.9159626 13.3528642,11.4069298 L13.2670557,11.5018652 L9.1422661,15.6266547 C8.68462045,16.0843004 7.96040177,16.1129032 7.46943449,15.7124633 L7.37449915,15.6266547 L0.917354141,9.16950973 C0.716232974,8.96838856 0.5905866,8.70563564 0.559067657,8.42534877 L0.551376823,8.30428089 L0.482286478,3.6877494 C0.47560492,3.22756336 0.843091434,2.84894089 1.30327747,2.84207244 Z M3.66705525,0.483739111 L8.30845959,0.552642566 C8.5928562,0.556887291 8.86601855,0.65792411 9.08384884,0.837100384 L9.17368843,0.918619883 L15.6308334,7.37576489 C16.0902738,7.83520524 16.1172997,8.56331347 15.7119111,9.0543618 L15.6308334,9.14353185 L14.4525723,10.3229378 L14.4446847,10.3163613 C14.382305,9.88767946 14.1861806,9.47471184 13.8563113,9.14484258 L7.3991663,2.68769757 C7.01607837,2.30460963 6.49882606,2.08582056 5.95711824,2.07773537 L2.85715616,2.03207244 L2.84548949,1.32941607 C2.83991104,0.904628955 3.15254795,0.549339795 3.56263223,0.491791236 L3.66705525,0.483739111 Z M3.49684625,5.02311199 C3.03660895,5.02311199 2.66351291,5.39620803 2.66351291,5.85644532 C2.66351291,6.31668261 3.03660895,6.68977866 3.49684625,6.68977866 C3.95708354,6.68977866 4.33017958,6.31668261 4.33017958,5.85644532 C4.33017958,5.39620803 3.95708354,5.02311199 3.49684625,5.02311199 Z" id="形状"></path>
                        </g>
                    </g>
                </g>
            </g>
        </g>
    </g>
</svg>