<?xml version="1.0" encoding="UTF-8"?>
<svg width="24px" height="24px" viewBox="0 0 24 24" version="1.1" xmlns="http://www.w3.org/2000/svg" xmlns:xlink="http://www.w3.org/1999/xlink">
    <title>icon_device_alert</title>
    <g id="控件" stroke="none" stroke-width="1" fill="none" fill-rule="evenodd">
        <g id="list/设备管理/card5" transform="translate(-281.000000, -152.000000)">
            <g id="编组">
                <g id="编组-2" transform="translate(143.000000, 152.000000)">
                    <g id="编组-8" transform="translate(120.000000, 0.000000)">
                        <g id="告警" transform="translate(18.000000, 0.000000)">
                            <g id="icon/报警面">
                                <g id="编组">
                                    <g transform="translate(4.000000, 4.000000)" fill-rule="nonzero">
                                        <path d="M8.6495,1.25 L15.794,13.625 C15.9279729,13.8570479 15.9279747,14.1429422 15.7940048,14.3749918 C15.6600348,14.6070413 15.4124458,14.75 15.1445,14.75 L0.8555,14.75 C0.587554211,14.75 0.339965184,14.6070413 0.205995237,14.3749918 C0.0720252896,14.1429422 0.0720271054,13.8570479 0.206,13.625 L7.3505,1.25 C7.48447958,1.01796779 7.73206442,0.875032999 8,0.875032999 C8.26793558,0.875032999 8.51552042,1.01796779 8.6495,1.25 Z" id="路径" stroke="#FBBD11" fill="#FBBD11"></path>
                                        <path d="M8.75,11 L8.75,12.5 L7.25,12.5 L7.25,11 L8.75,11 Z M8.75,5.75 L8.75,9.5 L7.25,9.5 L7.25,5.75 L8.75,5.75 Z" id="形状结合" fill="#FFFFFF"></path>
                                    </g>
                                </g>
                            </g>
                            <g id="label/提醒/小" transform="translate(15.000000, 1.000000)" fill="#F1544C" stroke="#FFFFFF">
                                <g id="编组">
                                    <circle id="椭圆形" cx="4" cy="4" r="3.5"></circle>
                                </g>
                            </g>
                        </g>
                    </g>
                </g>
            </g>
        </g>
    </g>
</svg>