<?xml version="1.0" encoding="UTF-8"?>
<svg width="24px" height="24px" viewBox="0 0 24 24" version="1.1" xmlns="http://www.w3.org/2000/svg" xmlns:xlink="http://www.w3.org/1999/xlink">
    <title>icon_rank</title>
    <g id="appUI" stroke="none" stroke-width="1" fill="none" fill-rule="evenodd">
        <g id="设备管理-排序" transform="translate(-335.000000, -86.000000)" fill="#121212" fill-rule="nonzero">
            <g id="icon/筛选-principle-flatten" transform="translate(335.000000, 86.000000)">
                <g id="编组">
                    <g id="编组-3" transform="translate(3.000000, 3.000000)">
                        <path d="M3.45352615,0.574121427 L3.53033009,0.641242789 L5.65165043,2.76256313 C5.94454365,3.05545635 5.94454365,3.53033009 5.65165043,3.8232233 C5.38316498,4.09170876 4.96176535,4.11408254 4.6677942,3.89034467 L4.59099026,3.8232233 L3.74867966,2.98057288 L3.75,3 L3.75,17 C3.75,17.4142136 3.41421356,17.75 3,17.75 C2.62030423,17.75 2.30650904,17.4678461 2.25684662,17.1017706 L2.25,17 L2.25067966,2.98057288 L1.40900974,3.8232233 C1.14052429,4.09170876 0.719124658,4.11408254 0.42515351,3.89034467 L0.348349571,3.8232233 C0.07986412,3.55473785 0.0574903324,3.13333822 0.281228208,2.83936707 L0.348349571,2.76256313 L2.46966991,0.641242789 C2.73815536,0.372757339 3.159555,0.350383551 3.45352615,0.574121427 Z" id="路径"></path>
                    </g>
                    <path d="M20.5,6.25 C20.9142136,6.25 21.25,6.58578644 21.25,7 C21.25,7.37969577 20.9678461,7.69349096 20.6017706,7.74315338 L20.5,7.75 L11.5,7.75 C11.0857864,7.75 10.75,7.41421356 10.75,7 C10.75,6.62030423 11.0321539,6.30650904 11.3982294,6.25684662 L11.5,6.25 L20.5,6.25 Z" id="直线-2"></path>
                    <path d="M18.5,10.25 C18.9142136,10.25 19.25,10.5857864 19.25,11 C19.25,11.3796958 18.9678461,11.693491 18.6017706,11.7431534 L18.5,11.75 L11.5,11.75 C11.0857864,11.75 10.75,11.4142136 10.75,11 C10.75,10.6203042 11.0321539,10.306509 11.3982294,10.2568466 L11.5,10.25 L18.5,10.25 Z" id="直线-2备份"></path>
                    <path d="M16.5,14.25 C16.9142136,14.25 17.25,14.5857864 17.25,15 C17.25,15.3796958 16.9678461,15.693491 16.6017706,15.7431534 L16.5,15.75 L11.5,15.75 C11.0857864,15.75 10.75,15.4142136 10.75,15 C10.75,14.6203042 11.0321539,14.306509 11.3982294,14.2568466 L11.5,14.25 L16.5,14.25 Z" id="直线-2备份-2"></path>
                    <path d="M14.5,18.25 C14.9142136,18.25 15.25,18.5857864 15.25,19 C15.25,19.3796958 14.9678461,19.693491 14.6017706,19.7431534 L14.5,19.75 L11.5,19.75 C11.0857864,19.75 10.75,19.4142136 10.75,19 C10.75,18.6203042 11.0321539,18.306509 11.3982294,18.2568466 L11.5,18.25 L14.5,18.25 Z" id="直线-2备份-3"></path>
                </g>
            </g>
        </g>
    </g>
</svg>