<?xml version="1.0" encoding="UTF-8"?>
<svg width="24px" height="24px" viewBox="0 0 24 24" version="1.1" xmlns="http://www.w3.org/2000/svg" xmlns:xlink="http://www.w3.org/1999/xlink">
    <title>icon_rank_za</title>
    <g id="appUI" stroke="none" stroke-width="1" fill="none" fill-rule="evenodd">
        <g id="设备管理-搜索" transform="translate(-335.000000, -86.000000)">
            <g id="icon/筛选-principle-flatten" transform="translate(335.000000, 86.000000)">
                <g id="编组">
                    <g>
                        <polygon id="路径" points="0 0 24 0 24 24 0 24"></polygon>
                        <line x1="2.5" y1="12" x2="12.5" y2="12" id="直线备份" stroke="#26C464" stroke-width="2" stroke-linecap="round"></line>
                        <line x1="18" y1="4.5" x2="18" y2="19" id="直线备份-3" stroke="#26C464" stroke-width="2" stroke-linecap="round"></line>
                        <path d="M20.5761719,20 L20.8496094,19.2041016 L22.199707,19.2041016 L22.4755859,20 L23.0444336,20 L21.7504883,16.4404297 L21.2988281,16.4404297 L20.0048828,20 L20.5761719,20 Z M22.0458984,18.7255859 L21.0058594,18.7255859 L21.5209961,17.1704102 L21.5307617,17.1704102 L22.0458984,18.7255859 Z" id="A" fill="#26C464" fill-rule="nonzero"></path>
                        <polyline id="路径" stroke="#26C464" stroke-width="2" stroke-linecap="round" stroke-linejoin="round" transform="translate(18.000000, 8.000000) rotate(-315.000000) translate(-18.000000, -8.000000) " points="15 11 15 5 21 5"></polyline>
                        <line x1="2.5" y1="6" x2="10.5" y2="6" id="直线" stroke="#26C464" stroke-width="2" stroke-linecap="round"></line>
                        <line x1="2.5" y1="18" x2="12.5" y2="18" id="直线备份-2" stroke="#26C464" stroke-width="2" stroke-linecap="round"></line>
                    </g>
                </g>
            </g>
        </g>
    </g>
</svg>