<?xml version="1.0" encoding="UTF-8"?>
<svg width="24px" height="24px" viewBox="0 0 24 24" version="1.1" xmlns="http://www.w3.org/2000/svg" xmlns:xlink="http://www.w3.org/1999/xlink">
    <title>icon_alertconfi</title>
    <g id="appUI" stroke="none" stroke-width="1" fill="none" fill-rule="evenodd">
        <g id="4.3.2-数字量P0_B" transform="translate(-34.000000, -344.000000)" fill="#FFFFFF" fill-rule="nonzero">
            <g id="编组" transform="translate(25.000000, 186.000000)">
                <g id="告警设置-principle-flatten" transform="translate(0.000000, 146.000000)">
                    <g id="channel配置">
                        <g id="icon/列表备份" transform="translate(9.000000, 12.000000)">
                            <g id="编组">
                                <path d="M19.5570669,13.749803 C19.6289214,14.2241142 19.912917,14.6398664 20.328615,14.879302 C20.7439856,15.1195665 21.2461971,15.1574829 21.6929331,14.9823066 C22.055337,15.3880346 22.3298529,15.8643728 22.4992107,16.3813542 C22.1245383,16.6808143 21.9066459,17.1346117 21.9072301,17.6142525 C21.9072301,18.1130949 22.1384972,18.5578697 22.5,18.8471509 C22.3296404,19.3637044 22.0547841,19.8396654 21.6925384,20.2454091 C21.245917,20.0703604 20.7438811,20.1082746 20.328615,20.3484138 C19.9132647,20.5877711 19.6294524,21.0031772 19.5574616,21.4771235 C19.0251564,21.5890181 18.475456,21.5895556 17.9429331,21.4787021 C17.8714167,21.0039548 17.5873785,20.5877044 17.171385,20.3480191 C16.7559528,20.1078843 16.2537436,20.0701133 15.8070669,20.2454091 C15.4446161,19.8395652 15.1700977,19.3630884 15.0007893,18.8459669 C15.3752451,18.5466795 15.5931139,18.0932221 15.5927699,17.6138579 C15.5931625,17.1340837 15.3749681,16.6802626 15,16.3809596 C15.1703596,15.864406 15.4452159,15.3884451 15.8074616,14.9827013 C16.254083,15.15775 16.7561189,15.1198359 17.171385,14.8796967 C17.5405853,14.6669346 17.8058543,14.3150723 17.9108064,13.9066397 L17.9425384,13.7505923 C18.474898,13.638958 19.0245984,13.6386893 19.5570669,13.749803 Z M12,2.25 C12.6073316,2.25 13.1685341,2.57399139 13.4722505,3.09998185 L18.4312692,11.6895062 C18.6383714,12.0482283 18.5154592,12.5069195 18.1567371,12.7140217 C17.798015,12.921124 17.3393238,12.7982118 17.1322216,12.4394897 L12.1732267,3.8500066 C12.1374933,3.78812181 12.0714605,3.75 12,3.75 C11.9464046,3.75 11.8958623,3.77144352 11.8588759,3.80825552 L11.8267971,3.84996535 L2.77679904,19.5254817 C2.74106744,19.5873706 2.74106695,19.6636209 2.77679777,19.7255103 C2.80359734,19.7719299 2.84743932,19.80498 2.89782652,19.8186038 L2.95000666,19.8255279 L14,19.8255279 C14.4142136,19.8255279 14.7499994,20.1613143 14.7499994,20.5755279 C14.7499994,20.9552236 14.4678461,21.2690188 14.1017706,21.3186813 L14,21.3255279 L2.95000666,21.3255279 C2.34264521,21.3255279 1.78142433,21.0014883 1.47775014,20.4754938 C1.20168586,19.9973224 1.17659251,19.4182829 1.40246534,18.921781 L1.47775618,18.7754899 L10.5277733,3.0999406 C10.8314659,2.57399139 11.3926684,2.25 12,2.25 Z M18.75,16.4302913 C18.0961162,16.4302913 17.5660387,16.9603688 17.5660387,17.6142525 C17.5660387,18.2681363 18.0961162,18.7982138 18.75,18.7982138 C19.4038838,18.7982138 19.9339613,18.2681363 19.9339613,17.6142525 C19.9339613,16.9603688 19.4038838,16.4302913 18.75,16.4302913 Z M12.9500308,15.8253739 L12.9500308,17.7254355 L11.0499692,17.7254355 L11.0499692,15.8253739 L12.9500308,15.8253739 Z M12.9500308,9.17515836 L12.9500308,13.9253123 L11.0499692,13.9253123 L11.0499692,9.17515836 L12.9500308,9.17515836 Z" id="形状"></path>
                            </g>
                        </g>
                    </g>
                </g>
            </g>
        </g>
    </g>
</svg>