<?xml version="1.0" encoding="UTF-8"?>
<svg width="24px" height="24px" viewBox="0 0 24 24" version="1.1" xmlns="http://www.w3.org/2000/svg" xmlns:xlink="http://www.w3.org/1999/xlink">
    <title>icon_information_time</title>
    <g id="appUI" stroke="none" stroke-width="1" fill="none" fill-rule="evenodd">
        <g id="5.4.1-编辑日志" transform="translate(-160.000000, -173.000000)" fill="#FFFFFF" fill-rule="nonzero">
            <g id="infor" transform="translate(16.000000, 161.000000)">
                <g id="编组" transform="translate(144.000000, 12.000000)">
                    <path d="M12,4.6 C16.0869071,4.6 19.4,7.91309285 19.4,12 C19.4,16.0869071 16.0869071,19.4 12,19.4 C7.91309285,19.4 4.6,16.0869071 4.6,12 C4.6,7.91309285 7.91309285,4.6 12,4.6 Z M12,7.4 C11.7017662,7.4 11.4543532,7.61758961 11.407853,7.90267688 L11.4,8 L11.4018434,12.0485091 L11.4018434,12.0485091 L11.4176122,12.1449646 L11.4176122,12.1449646 L11.4318946,12.1935234 L11.4318946,12.1935234 L11.4663016,12.2744395 L11.4663016,12.2744395 L11.4938031,12.3221253 L13.9200519,16.134802 L13.9789276,16.2126937 C14.1712144,16.428246 14.4967658,16.478988 14.7483741,16.3188736 C14.9999824,16.1587592 15.0918967,15.8423572 14.9780708,15.5768752 L14.9324457,15.4905514 L12.6,11.825 L12.6,8 L12.592147,7.90267688 C12.5456468,7.61758961 12.2982338,7.4 12,7.4 Z" id="形状"></path>
                </g>
            </g>
        </g>
    </g>
</svg>