<?xml version="1.0" encoding="UTF-8"?>
<svg width="24px" height="24px" viewBox="0 0 24 24" version="1.1" xmlns="http://www.w3.org/2000/svg" xmlns:xlink="http://www.w3.org/1999/xlink">
    <title>icon_rank_az</title>
    <g id="appUI" stroke="none" stroke-width="1" fill="none" fill-rule="evenodd">
        <g id="设备管理-下拉刷新" transform="translate(-335.000000, -237.000000)">
            <g id="icon/筛选-principle-flatten" transform="translate(335.000000, 237.000000)">
                <g id="编组">
                    <g transform="translate(13.000000, 12.000000) scale(1, -1) translate(-13.000000, -12.000000) translate(2.000000, 3.000000)">
                        <line x1="0.5" y1="9" x2="10.5" y2="9" id="直线备份" stroke="#313533" stroke-width="2" stroke-linecap="round"></line>
                        <line x1="16" y1="1.5" x2="16" y2="16" id="直线备份-3" stroke="#313533" stroke-width="2" stroke-linecap="round"></line>
                        <path d="M18.5712891,17 L18.8447266,16.2041016 L20.1948242,16.2041016 L20.4707031,17 L21.0395508,17 L19.7456055,13.4404297 L19.2939453,13.4404297 L18,17 L18.5712891,17 Z M20.0410156,15.7255859 L19.0009766,15.7255859 L19.5161133,14.1704102 L19.5258789,14.1704102 L20.0410156,15.7255859 Z" id="A" fill="#313533" fill-rule="nonzero" transform="translate(19.519775, 15.220215) scale(1, -1) translate(-19.519775, -15.220215) "></path>
                        <polyline id="路径" stroke="#313533" stroke-width="2" stroke-linecap="round" stroke-linejoin="round" transform="translate(16.000000, 5.000000) rotate(-315.000000) translate(-16.000000, -5.000000) " points="13 8 13 2 19 2"></polyline>
                        <line x1="0.5" y1="3" x2="8.5" y2="3" id="直线" stroke="#313533" stroke-width="2" stroke-linecap="round"></line>
                        <line x1="0.5" y1="15" x2="10.5" y2="15" id="直线备份-2" stroke="#313533" stroke-width="2" stroke-linecap="round"></line>
                    </g>
                </g>
            </g>
        </g>
    </g>
</svg>