<?xml version="1.0" encoding="UTF-8"?>
<svg width="24px" height="24px" viewBox="0 0 24 24" version="1.1" xmlns="http://www.w3.org/2000/svg" xmlns:xlink="http://www.w3.org/1999/xlink">
    <title>icon_more_detail</title>
    <g id="appUI" stroke="none" stroke-width="1" fill="none" fill-rule="evenodd">
        <g id="5.2.1-下发动作日志-" transform="translate(-319.000000, -282.000000)" fill="#4D8CEB" fill-rule="nonzero">
            <g id="card/日志/告警备份" transform="translate(16.000000, 267.000000)">
                <g id="编组" transform="translate(303.000000, 15.000000)">
                    <path d="M5,2.4 L15.2485281,2.4 L20.6,7.75147186 L20.6,11 C20.6,11.3313708 20.3313708,11.6 20,11.6 C19.7017662,11.6 19.4543532,11.3824104 19.407853,11.0973231 L19.4,11 L19.4,8.599 L14.4,8.6 L14.4,3.599 L5,3.6 C4.80670034,3.6 4.64542508,3.7371128 4.60812658,3.91938605 L4.6,4 L4.6,20 C4.6,20.1932997 4.7371128,20.3545749 4.91938605,20.3918734 L5,20.4 L19,20.4 C19.1932997,20.4 19.3545749,20.2628872 19.3918734,20.080614 L19.4,20 L19.4,19 C19.4,18.6686292 19.6686292,18.4 20,18.4 C20.2982338,18.4 20.5456468,18.6175896 20.592147,18.9026769 L20.6,19 L20.6,20 C20.6,20.8345636 19.9610385,21.5198898 19.1456326,21.5934613 L19,21.6 L5,21.6 C4.16543638,21.6 3.48011021,20.9610385 3.40653868,20.1456326 L3.4,20 L3.4,4 C3.4,3.16543638 4.03896152,2.48011021 4.85436739,2.40653868 L5,2.4 Z M10.0198895,12.8541436 C10.1053407,12.8364641 10.186372,12.8423573 10.2629834,12.8718232 C10.345488,12.9012891 10.4279926,12.9616943 10.5104972,13.0530387 C10.5723757,13.121547 10.6110497,13.1892265 10.6265193,13.2560773 L10.6342541,13.3226519 L10.6475138,14.1933702 L10.6475138,14.1933702 L10.6494782,14.7355433 C10.6491508,14.8327808 10.648496,14.9334561 10.6475138,15.0375691 C10.6445672,15.3499079 10.638674,15.6622468 10.6298343,15.9745856 C10.6209945,16.2869245 10.6077348,16.5860037 10.5900552,16.8718232 L10.559116,17.2662983 C10.5473297,17.386372 10.53407,17.4950276 10.519337,17.5922652 C10.4898711,17.7808471 10.4132597,17.9443831 10.2895028,18.0828729 C10.1657459,18.2213628 10.0169429,18.3259669 9.84309392,18.3966851 C9.66924494,18.4674033 9.48360958,18.5012891 9.28618785,18.4983425 C9.08876611,18.4953959 8.90165746,18.4467772 8.72486188,18.3524862 C8.60110497,18.2876611 8.49060773,18.2051565 8.39337017,18.1049724 L8.10607735,17.8044199 L8.07955801,17.7513812 L8.04763659,17.6394107 C8.03257622,17.5647637 8.02995703,17.4901166 8.03977901,17.4154696 C8.05451197,17.3034991 8.09281768,17.2077348 8.15469613,17.1281768 C8.21657459,17.0486188 8.29760589,16.9926335 8.39779006,16.960221 C8.49797422,16.9278085 8.60994475,16.9381215 8.73370166,16.9911602 C8.82209945,17.0265193 8.89429098,17.079558 8.95027624,17.1502762 C9.00626151,17.2209945 9.06666667,17.2887661 9.13149171,17.3535912 L9.22320442,17.4187845 C9.24604052,17.4327808 9.2611418,17.4390424 9.26850829,17.4375691 C9.28324125,17.4346225 9.28766114,17.4302026 9.28176796,17.4243094 C9.36427256,17.4478821 9.42467772,17.4184162 9.46298343,17.3359116 C9.50128913,17.253407 9.52780847,17.1502762 9.54254144,17.0265193 L9.55911602,16.8364641 L9.55911602,16.8364641 L9.56464088,16.6375691 L9.56464088,13.9502762 L9.56243094,13.8022099 L9.5558011,13.6585635 C9.54990792,13.5642726 9.54990792,13.467035 9.5558011,13.3668508 C9.5558011,13.2843462 9.57790055,13.2062615 9.62209945,13.1325967 C9.66629834,13.0589319 9.72228361,12.9985267 9.79005525,12.9513812 C9.85782689,12.9042357 9.93443831,12.8718232 10.0198895,12.8541436 Z M17.1977901,12.9823204 C17.4718232,12.9793738 17.7267035,13.0338858 17.9624309,13.1458564 C18.1981584,13.2578269 18.3985267,13.4243094 18.5635359,13.6453039 C18.7285451,13.8662983 18.8375691,14.1300184 18.8906077,14.4364641 C18.9200737,14.6368324 18.9362799,14.8268877 18.9392265,15.0066298 C18.9421731,15.186372 18.9230203,15.3734807 18.881768,15.5679558 C18.8228361,15.8449355 18.7034991,16.120442 18.5237569,16.3944751 C18.3440147,16.6685083 18.1289134,16.8983425 17.878453,17.0839779 C17.6279926,17.2696133 17.3539595,17.3918969 17.0563536,17.4508287 C16.7587477,17.5097606 16.4596685,17.4626151 16.159116,17.3093923 C16.0235727,17.2445672 15.9012891,17.1694291 15.7922652,17.0839779 C15.6832413,16.9985267 15.5845304,16.8968692 15.4961326,16.7790055 C15.3959484,16.6493554 15.3178637,16.5138122 15.2618785,16.3723757 C15.2058932,16.2309392 15.160221,16.0836096 15.1248619,15.9303867 C15.0836096,15.7653775 15.0688766,15.598895 15.080663,15.4309392 L15.1049724,15.1823204 L15.1049724,15.1823204 L15.1513812,14.8872928 L15.1980356,14.7173726 C15.2327399,14.6047473 15.274647,14.4934316 15.3237569,14.3834254 C15.3974217,14.2184162 15.4872928,14.0607735 15.5933702,13.9104972 C15.6994475,13.760221 15.8187845,13.6232044 15.9513812,13.4994475 C16.0839779,13.3756906 16.2268877,13.2755064 16.3801105,13.198895 C16.6511971,13.0574586 16.9237569,12.985267 17.1977901,12.9823204 Z M13.0170657,12.7327976 L13.1668508,12.7392265 C13.3171271,12.7510129 13.46593,12.7790055 13.6132597,12.8232044 C13.7605893,12.8674033 13.8961326,12.9160221 14.0198895,12.9690608 C14.161326,13.0338858 14.2674033,13.1252302 14.3381215,13.2430939 C14.4088398,13.3609576 14.4427256,13.4802947 14.439779,13.601105 C14.4368324,13.7219153 14.3955801,13.8265193 14.3160221,13.9149171 C14.2364641,14.0033149 14.1200737,14.0475138 13.9668508,14.0475138 C13.8725599,14.0475138 13.7871087,14.0313076 13.7104972,13.998895 C13.6338858,13.9664825 13.5543278,13.9355433 13.4718232,13.9060773 C13.3657459,13.864825 13.2508287,13.8368324 13.1270718,13.8220994 C13.0033149,13.8073665 12.9031308,13.814733 12.8265193,13.8441989 C12.8029466,13.8500921 12.7764273,13.8692449 12.7469613,13.9016575 C12.7174954,13.93407 12.6953959,13.973849 12.680663,14.0209945 C12.66593,14.06814 12.6629834,14.1152855 12.6718232,14.1624309 C12.680663,14.2095764 12.7116022,14.2478821 12.7646409,14.2773481 C12.9060773,14.3539595 13.0563536,14.4128913 13.2154696,14.4541436 C13.3745856,14.4953959 13.5307551,14.5425414 13.6839779,14.5955801 C13.8372007,14.6486188 13.9801105,14.7163904 14.1127072,14.798895 C14.2453039,14.8813996 14.3558011,14.9992634 14.4441989,15.1524862 C14.573849,15.3764273 14.6401473,15.6106814 14.6430939,15.8552486 C14.6460405,16.0998158 14.5974217,16.3281768 14.4972376,16.5403315 C14.3970534,16.7524862 14.2497238,16.9337017 14.0552486,17.0839779 C13.8996685,17.2041989 13.7233444,17.2857606 13.5262762,17.328663 L13.3745856,17.3535912 L13.1928791,17.3619657 L13.0131369,17.3516268 L12.8353591,17.3226519 C12.6585635,17.2843462 12.4876611,17.2224678 12.3226519,17.1370166 C12.1576427,17.0515654 12.0044199,16.9499079 11.8629834,16.8320442 C11.7686924,16.7534684 11.6822591,16.6722734 11.6036832,16.5884592 L11.4917127,16.4607735 L11.4651934,16.4077348 L11.4367096,16.3080417 C11.4223041,16.2419071 11.4170657,16.1764273 11.4209945,16.1116022 C11.4268877,16.0143646 11.4519337,15.9259669 11.4961326,15.8464088 C11.5403315,15.7668508 11.6036832,15.7049724 11.6861878,15.6607735 C11.7686924,15.6165746 11.8688766,15.6003683 11.9867403,15.6121547 C12.0515654,15.6180479 12.1104972,15.6357274 12.1635359,15.6651934 C12.2165746,15.6946593 12.2651934,15.7300184 12.3093923,15.7712707 L12.441989,15.9038674 C12.4861878,15.9510129 12.53186,15.9922652 12.5790055,16.0276243 C12.6791897,16.1042357 12.785267,16.160221 12.8972376,16.1955801 C13.0092081,16.2309392 13.1270718,16.2574586 13.2508287,16.2751381 C13.3333333,16.2751381 13.3996317,16.254512 13.4497238,16.2132597 C13.4998158,16.1720074 13.5337017,16.1219153 13.5513812,16.0629834 C13.5690608,16.0040516 13.5734807,15.9406998 13.5646409,15.8729282 C13.5558011,15.8051565 13.5337017,15.7506446 13.4983425,15.7093923 C13.3981584,15.6092081 13.2758748,15.5443831 13.1314917,15.5149171 C12.9871087,15.4854512 12.8530387,15.4500921 12.7292818,15.4088398 C12.5524862,15.3499079 12.3786372,15.2747698 12.2077348,15.1834254 C12.0368324,15.092081 11.8983425,14.9668508 11.7922652,14.8077348 C11.6802947,14.6427256 11.6139963,14.4674033 11.5933702,14.281768 C11.572744,14.0961326 11.587477,13.9149171 11.6375691,13.7381215 C11.6876611,13.561326 11.771639,13.3992634 11.8895028,13.2519337 C12.0073665,13.1046041 12.1488029,12.9837937 12.3138122,12.8895028 C12.4375691,12.8187845 12.5731123,12.7731123 12.720442,12.7524862 C12.8186618,12.7387354 12.9175363,12.7321874 13.0170657,12.7327976 L13.0170657,12.7327976 Z M21.1977901,12.9248619 C21.480663,12.8718232 21.7473297,12.880663 21.9977901,12.9513812 C22.2482505,13.0220994 22.4574586,13.1546961 22.6254144,13.3491713 C22.7653775,13.5112339 22.849069,13.7244526 22.8764886,13.9888275 L22.8999386,14.3264579 L22.8999386,14.3264579 L22.9038674,14.5071823 L22.9038674,16.7701657 L22.8837017,16.8756906 C22.8566298,16.9762431 22.8088398,17.0618785 22.7403315,17.1325967 C22.6718232,17.2033149 22.5966851,17.2541436 22.5149171,17.2850829 L22.4309392,17.3093923 L22.3455801,17.3198895 L22.2618785,17.3160221 C22.2066298,17.3086556 22.1524862,17.2917127 22.0994475,17.2651934 C21.9933702,17.2121547 21.9167587,17.1090239 21.8696133,16.9558011 C21.8165746,16.7907919 21.7959484,16.6184162 21.8077348,16.438674 C21.8155924,16.3188459 21.8208308,16.204911 21.82345,16.0968692 L21.8298343,14.9889503 L21.8298343,14.9889503 C21.8327808,14.6736648 21.8195212,14.3569061 21.7900552,14.038674 L21.7723757,14.0077348 L21.7723757,14.0077348 L21.7370166,13.9679558 L21.7370166,13.9679558 C21.6014733,13.9325967 21.4570902,13.9414365 21.3038674,13.9944751 C21.1506446,14.0475138 21.0209945,14.1152855 20.9149171,14.1977901 C20.8206262,14.2744015 20.7278085,14.3790055 20.6364641,14.5116022 C20.5679558,14.6110497 20.5251381,14.708011 20.508011,14.8024862 L20.4994475,14.8961326 L20.4994475,16.1160221 L20.5016575,16.2640884 L20.5082873,16.4254144 C20.5141805,16.5373849 20.5097606,16.6464088 20.4950276,16.7524862 C20.4802947,16.8585635 20.4464088,16.9558011 20.3933702,17.0441989 C20.3403315,17.1325967 20.2548803,17.1974217 20.1370166,17.238674 C20.0721915,17.2622468 20.0117864,17.2710866 19.9558011,17.2651934 C19.8998158,17.2593002 19.8394107,17.2445672 19.7745856,17.2209945 C19.6685083,17.1856354 19.5918969,17.1252302 19.5447514,17.039779 C19.4976059,16.9543278 19.4651934,16.8629834 19.4475138,16.7657459 C19.4298343,16.6685083 19.4224678,16.5742173 19.4254144,16.4828729 L19.4293432,16.3257213 L19.4209945,14.8696133 L19.4209945,13.4729282 L19.4281768,13.3798343 C19.4425414,13.290884 19.478453,13.2143646 19.5359116,13.1502762 C19.612523,13.064825 19.7023941,13.0088398 19.8055249,12.9823204 C19.9086556,12.9558011 20.0176796,12.9616943 20.1325967,13 C20.2475138,13.0383057 20.3432781,13.1163904 20.4198895,13.2342541 C20.6556169,13.0810313 20.9149171,12.9779006 21.1977901,12.9248619 Z M17.3436464,14.0563536 C17.1963168,14.0563536 17.0607735,14.0843462 16.9370166,14.1403315 C16.8132597,14.1963168 16.705709,14.2699816 16.6143646,14.361326 C16.5230203,14.4526703 16.4434622,14.560221 16.3756906,14.6839779 C16.307919,14.8077348 16.253407,14.9373849 16.2121547,15.0729282 C16.1944751,15.1672192 16.1797422,15.2600368 16.1679558,15.3513812 C16.1561694,15.4427256 16.1561694,15.5355433 16.1679558,15.6298343 C16.1856354,15.7653775 16.2224678,15.8891344 16.278453,16.001105 C16.3344383,16.1130755 16.4081031,16.2014733 16.4994475,16.2662983 C16.5907919,16.3311234 16.6953959,16.3650092 16.8132597,16.3679558 C16.9311234,16.3709024 17.0578269,16.33407 17.1933702,16.2574586 C17.3642726,16.1572744 17.5116022,16.0025783 17.6353591,15.7933702 C17.759116,15.5841621 17.8357274,15.3661142 17.8651934,15.1392265 C17.8946593,14.9123389 17.8710866,14.6972376 17.7944751,14.4939227 C17.7178637,14.2906077 17.5675875,14.1447514 17.3436464,14.0563536 Z M10.041989,10.9933702 C10.1834254,10.9963168 10.3145488,11.0508287 10.4353591,11.1569061 C10.5561694,11.2629834 10.6195212,11.4132597 10.6254144,11.6077348 C10.6372007,11.8081031 10.5856354,11.9627993 10.4707182,12.0718232 C10.3845304,12.1535912 10.2892265,12.2088398 10.1848066,12.2375691 L10.0773481,12.2574586 L9.99001105,12.2597569 L9.90479558,12.2489724 C9.82064088,12.2316464 9.73966851,12.1946961 9.66187845,12.1381215 C9.55815838,12.0626888 9.48649724,11.9514254 9.44689503,11.8043315 L9.42320442,11.6872928 L9.41436464,11.6254144 L9.43469613,11.5014807 C9.47005525,11.3454291 9.53841621,11.226151 9.63977901,11.1436464 C9.7664825,11.0405157 9.90055249,10.9904236 10.041989,10.9933702 Z M15.6,4.448 L15.6,7.4 L18.551,7.399 L15.6,4.448 Z" id="形状"></path>
                </g>
            </g>
        </g>
    </g>
</svg>