<?xml version="1.0" encoding="UTF-8"?>
<svg width="24px" height="24px" viewBox="0 0 24 24" version="1.1" xmlns="http://www.w3.org/2000/svg" xmlns:xlink="http://www.w3.org/1999/xlink">
    <title>icon_formula</title>
    <g id="appUI" stroke="none" stroke-width="1" fill="none" fill-rule="evenodd">
        <g id="4.4.1-模拟量P0" transform="translate(-34.000000, -652.000000)" fill="#FFFFFF" fill-rule="nonzero">
            <g id="编组" transform="translate(25.000000, 567.000000)">
                <g id="联动配置-principle-flatten" transform="translate(0.000000, 73.000000)">
                    <g id="channel配置">
                        <g id="icon/列表备份" transform="translate(9.000000, 12.000000)">
                            <g id="编组">
                                <g transform="translate(3.000000, 3.000000)" id="形状">
                                    <path d="M15.8622012,8.1155918 C15.975,8.00279297 16.0877988,7.8905918 16.2,7.8905918 L17.775,7.8905918 C17.8872012,7.8905918 18,7.7784082 18,7.66620703 L18,5.86919531 C18,5.75639648 17.8872012,5.64419531 17.775,5.64419531 L15.975,5.64419531 C15.8622012,5.64419531 15.6377988,5.75639648 15.6377988,5.86919531 L13.725,7.89120703 C13.6127988,8.00279297 13.5,8.00279297 13.5,7.89120703 L12.4877988,5.86919531 C12.375,5.75639648 12.2627988,5.64419531 12.15,5.64419531 L9.225,5.64419531 C9.11279883,5.64419531 9,5.75639648 9,5.86919531 L9,7.66620703 C9,7.7784082 9.11279883,7.8905918 9.225,7.8905918 L11.025,7.8905918 C11.1377988,7.8905918 11.25,8.00279297 11.3622012,8.1155918 L12.0372012,9.576 L12.0372012,9.91260352 L10.0122012,12.2712012 C9.9,12.2712012 9.78779883,12.384 9.675,12.384 L8.1,12.384 C7.98779883,12.384 7.875,12.4962012 7.875,12.6084023 L7.875,14.4054141 C7.875,14.5175977 7.98779883,14.6304141 8.1,14.6304141 L9.9,14.6304141 C10.0122012,14.6304141 10.2372012,14.5175977 10.2372012,14.4054141 L12.825,11.4851953 C12.9377988,11.3729941 13.05,11.3729941 13.05,11.4851953 L14.5122012,14.4053965 C14.5122012,14.5175977 14.7372012,14.6304141 14.85,14.6304141 L16.65,14.6304141 C16.7707337,14.6222606 16.8668642,14.5261302 16.875,14.4053965 L16.875,12.6083848 C16.8665702,12.4878912 16.7705162,12.3920999 16.65,12.384 L15.975,12.384 C15.8622012,12.384 15.75,12.2712012 15.6377988,12.159 L14.5122012,9.91260352 L14.5122012,9.576 L15.8622012,8.11560937 L15.8622012,8.1155918 Z M6.63779883,1.15140234 C6.075,1.60080469 5.51220117,2.2745918 5.175,3.39779883 L4.61279883,5.64419531 L1.35,5.64419531 C1.2292663,5.65233115 1.13313584,5.74846161 1.125,5.86919531 L1.125,7.66620703 C1.125,7.7784082 1.23720117,7.8905918 1.35,7.8905918 L4.05,7.8905918 L2.36220117,14.6303965 C2.025,15.9780059 1.125,15.7536035 1.125,15.7536035 L0,15.7536035 L0,18.0000022 L1.125,18.0000022 C2.025,18.0000022 2.925,17.8877988 3.375,17.3261953 C3.93779883,16.7645918 4.275,15.7536035 4.5,14.6304141 L6.18779883,7.89060937 L8.775,7.89060937 C8.88720117,7.89060937 9,7.7784082 9,7.66620703 L9,5.86919531 C9,5.75639648 8.88720117,5.64419531 8.775,5.64419531 L6.75,5.64419531 L7.31279883,3.51 C7.425,3.17339648 7.98779883,2.61179297 8.325,2.38679297 C9.56220117,1.48800586 11.25,2.04960937 12.375,2.27460937 L12.375,0.364798828 C11.25,0.140396484 8.775,-0.645591797 6.63779883,1.15080469 L6.63779883,1.15140234 Z"></path>
                                </g>
                            </g>
                        </g>
                    </g>
                </g>
            </g>
        </g>
    </g>
</svg>