<?xml version="1.0" encoding="UTF-8"?>
<svg width="81px" height="57px" viewBox="0 0 81 57" version="1.1" xmlns="http://www.w3.org/2000/svg" xmlns:xlink="http://www.w3.org/1999/xlink">
    <title>pic_port</title>
    <g id="appUI" stroke="none" stroke-width="1" fill="none" fill-rule="evenodd">
        <g id="4.3.1-port选择备份" transform="translate(-147.000000, -378.000000)">
            <g id="dialogport-principle-flatten" transform="translate(16.000000, 278.000000)">
                <g id="编组-2" transform="translate(30.000000, 100.000000)">
                    <g id="prot-principle-flatten" transform="translate(100.500000, 0.000000)">
                        <circle id="椭圆形" fill="#090D13" fill-rule="nonzero" cx="41.0842105" cy="28.1403509" r="21.6421053"></circle>
                        <path d="M41.0140351,53.8526316 C30.4541649,53.8526316 20.9343519,47.4907672 16.8945769,37.7341757 C12.8548019,27.9775843 15.0908311,16.7481448 22.5597944,9.283197 C30.0287578,1.81824921 41.2593981,-0.411740629 51.0138157,3.63328067 C60.7682332,7.67830196 67.1249756,17.2015348 67.119302,27.7614035 C67.1038153,42.1702523 55.4228901,53.8448974 41.0140351,53.8526316 Z" id="路径" fill="#090D13" fill-rule="nonzero"></path>
                        <path d="M41.0140351,3.05964511 C51.0062374,3.05397173 60.0176999,9.06876007 63.8454848,18.2987223 C67.6732696,27.5286844 65.5633581,38.1556506 58.4998111,45.2232133 C51.436264,52.290776 40.8104988,54.4067269 31.5783626,50.5841885 C22.3462264,46.7616501 16.3263158,37.7536074 16.3263158,27.7614035 C16.3263158,14.1244804 27.3771142,3.06739737 41.0140351,3.05964511 M41.0140351,0.252631579 C25.8213599,0.252631579 13.5052632,12.5687283 13.5052632,27.7614035 C13.5052632,42.9540787 25.8213599,55.2701754 41.0140351,55.2701754 C56.2067103,55.2701754 68.522807,42.9540787 68.522807,27.7614035 C68.5073345,12.5751418 56.2002968,0.268104094 41.0140351,0.252631579 Z" id="形状" fill="#FCEACB" fill-rule="nonzero"></path>
                        <path d="M41.0140351,8.67367901 C48.7355716,8.66800661 55.699953,13.3149787 58.6587919,20.4471193 C61.6176309,27.5792599 59.9880328,35.7915292 54.530089,41.2534892 C49.0721452,46.7154492 40.8610767,48.3510875 33.7267616,45.3974955 C26.5924465,42.4439034 21.9403509,35.4829421 21.9403509,27.7614035 C21.9480788,17.228228 30.4808681,8.68915996 41.0140351,8.67367901 M41.0140351,3.05964912 C27.3716328,3.05964912 16.3122807,14.1190013 16.3122807,27.7614035 C16.3122807,41.4038058 27.3716328,52.4631579 41.0140351,52.4631579 C54.6564373,52.4631579 65.7157895,41.4038058 65.7157895,27.7614035 C65.7157895,14.1190013 54.6564373,3.05964912 41.0140351,3.05964912 Z" id="形状" fill="#4E4639" fill-rule="nonzero"></path>
                        <path d="M43.722807,12.0561404 L43.722807,13.8526316 C43.722807,15.4029046 42.4660625,16.6596491 40.9157895,16.6596491 C39.3655165,16.6596491 38.1087719,15.4029046 38.1087719,13.8526316 L38.1087719,12.0982456 C29.9782952,13.552381 24.3043886,20.9749125 25.0343123,29.2020854 C25.7642359,37.4292583 32.6563003,43.7369233 40.9157895,43.7369233 C49.1752787,43.7369233 56.067343,37.4292583 56.7972667,29.2020854 C57.5271903,20.9749125 51.8532838,13.552381 43.722807,12.0982456 L43.722807,12.0561404 Z M33.7859649,37.6421053 C32.1271728,37.6421053 30.7824561,36.2973886 30.7824561,34.6385965 C30.7824561,32.9798044 32.1271728,31.6350877 33.7859649,31.6350877 C35.444757,31.6350877 36.7894737,32.9798044 36.7894737,34.6385965 C36.7894737,36.2973886 35.444757,37.6421053 33.7859649,37.6421053 L33.7859649,37.6421053 Z M33.9122807,23.6070503 C32.6892623,23.6126929 31.5837722,22.8795803 31.1131179,21.7507355 C30.6424636,20.6218907 30.8997385,19.3205943 31.7645524,18.4557804 C32.6293663,17.5909666 33.9306626,17.3336916 35.0595074,17.804346 C36.1883522,18.2750003 36.9214648,19.3804904 36.9158222,20.6035088 C36.8851893,22.2403358 35.5493937,23.5511632 33.9122807,23.5508772 L33.9122807,23.6070503 Z M41.0842105,30.7087719 C39.4327905,30.7084834 38.09138,29.3750171 38.0812253,27.7236278 C38.0711852,26.0722386 39.3961889,24.7224684 41.047482,24.7019855 C42.6987751,24.6815025 44.0568516,25.9979912 44.0877193,27.6491228 C44.0877193,28.4457029 43.7712791,29.2096571 43.2080119,29.7729242 C42.6447448,30.3361914 41.8807906,30.6526316 41.0842105,30.6526316 L41.0842105,30.7087719 Z M47.8912281,37.6421053 C46.232436,37.6421053 44.8877193,36.2973886 44.8877193,34.6385965 C44.8877193,32.9798044 46.232436,31.6350877 47.8912281,31.6350877 C49.5500202,31.6350877 50.8947368,32.9798044 50.8947368,34.6385965 C50.8641366,36.2754235 49.528341,37.5862509 47.8912281,37.5859649 L47.8912281,37.6421053 Z M47.8912281,23.6070175 C46.232436,23.6070175 44.8877193,22.2623009 44.8877193,20.6035088 C44.8877193,18.9447167 46.232436,17.6 47.8912281,17.6 C49.5500202,17.6 50.8947369,18.9447167 50.8947369,20.6035088 C50.8950229,22.2406217 49.5841954,23.5764173 47.9473684,23.6070175 L47.8912281,23.6070175 Z" id="形状" fill="#2F3238" fill-rule="nonzero"></path>
                        <path d="M68.5228106,27.7614035 C68.5284843,16.6338684 61.8297879,6.59886529 51.550915,2.33660752 C41.2720421,-1.92565025 29.4377276,0.424417912 21.5673635,8.29076646 C13.6969995,16.157115 11.3408922,27.9902287 15.5979037,38.2712754 C19.8549153,48.5523222 29.8864985,55.2561404 41.0140351,55.2561404 C56.1980262,55.2484053 68.507323,42.9453887 68.5228106,27.7614035 L68.5228106,27.7614035 Z" id="路径" stroke="#030000" stroke-width="0.37" stroke-linejoin="bevel"></path>
                        <path d="M50.4316159,21.0526316 C50.4372623,19.9671298 49.787746,18.9853494 48.7864997,18.5660019 C47.7852535,18.1466544 46.6299414,18.3725266 45.8603532,19.1380855 C45.0907651,19.9036444 44.8588314,21.0577548 45.2729173,22.0611886 C45.6870032,23.0646223 46.6653605,23.7192982 47.7508772,23.7192982 C49.2259241,23.7192982 50.4238562,22.5276583 50.4316159,21.0526316 L50.4316159,21.0526316 Z" id="路径" stroke="#030000" stroke-width="0.37" stroke-linejoin="bevel"></path>
                        <path d="M36.9438596,21.0526316 C36.9438596,19.9740656 36.2941472,19.0017022 35.2976821,18.5889528 C34.3012171,18.1762035 33.1542362,18.4043522 32.3915749,19.1670135 C31.6289136,19.9296748 31.4007649,21.0766557 31.8135142,22.0731207 C32.2262636,23.0695858 33.198627,23.7192982 34.277193,23.7192982 C35.7499523,23.7192982 36.9438596,22.5253909 36.9438596,21.0526316 L36.9438596,21.0526316 Z" id="路径" stroke="#030000" stroke-width="0.37" stroke-linejoin="bevel"></path>
                        <path d="M43.6807018,27.7614035 C43.6807018,26.6828375 43.0309893,25.7104741 42.0345242,25.2977248 C41.0380592,24.8849754 39.8910783,25.1131241 39.128417,25.8757854 C38.3657557,26.6384467 38.137607,27.7854276 38.5503563,28.7818927 C38.9631057,29.7783577 39.9354691,30.4280702 41.0140351,30.4280702 C42.4867944,30.4280702 43.6807018,29.2341628 43.6807018,27.7614035 L43.6807018,27.7614035 Z" id="路径" stroke="#030000" stroke-width="0.37" stroke-linejoin="bevel"></path>
                        <path d="M50.4316159,34.4982456 C50.4372623,33.4127438 49.787746,32.4309635 48.7864997,32.0116159 C47.7852535,31.5922684 46.6299414,31.8181406 45.8603532,32.5836995 C45.0907651,33.3492584 44.8588314,34.5033689 45.2729173,35.5068026 C45.6870032,36.5102364 46.6653605,37.1649123 47.7508772,37.1649123 C49.2259241,37.1649123 50.4238562,35.9732723 50.4316159,34.4982456 L50.4316159,34.4982456 Z" id="路径" stroke="#030000" stroke-width="0.37" stroke-linejoin="bevel"></path>
                        <path d="M36.9438596,34.4982456 C36.9438596,33.0254863 35.7499523,31.8315789 34.277193,31.8315789 C32.8044336,31.8315789 31.6105263,33.0254863 31.6105263,34.4982456 C31.6105263,35.9710049 32.8044336,37.1649123 34.277193,37.1649123 C35.7499523,37.1649123 36.9438596,35.9710049 36.9438596,34.4982456 L36.9438596,34.4982456 Z" id="路径" stroke="#030000" stroke-width="0.37" stroke-linejoin="bevel"></path>
                        <path d="M50.993013,21.0526316 C50.9986646,19.7400601 50.2123639,18.5535702 49.0013331,18.0473288 C47.7903023,17.5410873 46.3935192,17.814993 45.4633713,18.7411144 C44.5332233,19.6672357 44.2532604,21.0628173 44.7542432,22.276033 C45.255226,23.4892487 46.4382935,24.2807323 47.7508772,24.2807323 C48.6094438,24.2844347 49.4341263,23.9459841 50.0425458,23.3401984 C50.6509654,22.7344127 50.993013,21.9112063 50.993013,21.0526316 L50.993013,21.0526316 Z" id="路径" stroke="#030000" stroke-width="0.37" stroke-linejoin="bevel"></path>
                        <path d="M37.4912587,21.0526316 C37.4969103,19.7400601 36.7106095,18.5535702 35.4995787,18.0473288 C34.2885479,17.5410873 32.8917648,17.814993 31.9616169,18.7411144 C31.0314689,19.6672357 30.751506,21.0628173 31.2524888,22.276033 C31.7534716,23.4892487 32.9365391,24.2807323 34.2491228,24.2807323 C35.1076894,24.2844347 35.9323719,23.9459841 36.5407915,23.3401984 C37.149211,22.7344127 37.4912587,21.9112063 37.4912587,21.0526316 Z" id="路径" stroke="#030000" stroke-width="0.37" stroke-linejoin="bevel"></path>
                        <path d="M44.2561709,27.7614035 C44.2618225,26.4488321 43.4755218,25.2623422 42.264491,24.7561007 C41.0534602,24.2498592 39.6566771,24.5237649 38.7265291,25.4498863 C37.7963812,26.3760077 37.5164183,27.7715892 38.0174011,28.9848049 C38.5183839,30.1980206 39.7014514,30.9895042 41.0140351,30.9895042 C41.8726017,30.9932066 42.6972842,30.654756 43.3057037,30.0489703 C43.9141233,29.4431847 44.2561709,28.6199782 44.2561709,27.7614035 L44.2561709,27.7614035 Z" id="路径" stroke="#030000" stroke-width="0.37" stroke-linejoin="bevel"></path>
                        <path d="M50.993013,34.4982456 C50.9986646,33.1856742 50.2123639,31.9991843 49.0013331,31.4929428 C47.7903023,30.9867013 46.3935192,31.260607 45.4633713,32.1867284 C44.5332233,33.1128498 44.2532604,34.5084313 44.7542432,35.721647 C45.255226,36.9348627 46.4382935,37.7263463 47.7508772,37.7263463 C48.6094438,37.7300487 49.4341263,37.3915981 50.0425458,36.7858124 C50.6509654,36.1800268 50.993013,35.3568203 50.993013,34.4982456 Z" id="路径" stroke="#030000" stroke-width="0.37" stroke-linejoin="bevel"></path>
                        <path d="M37.4912587,34.4982456 C37.4969103,33.1856742 36.7106095,31.9991843 35.4995787,31.4929428 C34.2885479,30.9867013 32.8917648,31.260607 31.9616169,32.1867284 C31.0314689,33.1128498 30.751506,34.5084313 31.2524888,35.721647 C31.7534716,36.9348627 32.9365391,37.7263463 34.2491228,37.7263463 C35.1076894,37.7300487 35.9323719,37.3915981 36.5407915,36.7858124 C37.149211,36.1800268 37.4912587,35.3568203 37.4912587,34.4982456 Z" id="路径" stroke="#030000" stroke-width="0.37" stroke-linejoin="bevel"></path>
                        <path d="M38.0666667,12.9403509 C30.4511291,14.4595484 25.2291317,21.5066956 25.9924267,29.2346808 C26.7557216,36.962666 33.2554635,42.8520543 41.0210526,42.8520543 C48.7866417,42.8520543 55.2863837,36.962666 56.0496786,29.2346808 C56.8129735,21.5066956 51.5909762,14.4595484 43.9754386,12.9403509" id="路径" stroke="#030000" stroke-width="0.37" stroke-linejoin="bevel"></path>
                        <line x1="43.9754386" y1="14.3719298" x2="43.9754386" y2="12.9403509" id="路径" stroke="#030000" stroke-width="0.37" stroke-linejoin="bevel"></line>
                        <path d="M38.0666667,14.3719298 C38.1737544,15.9247031 39.4645911,17.1295827 41.0210526,17.1295827 C42.5775142,17.1295827 43.8683509,15.9247031 43.9754386,14.3719298" id="路径" stroke="#030000" stroke-width="0.37" stroke-linejoin="bevel"></path>
                        <line x1="38.0666667" y1="12.9403509" x2="38.0666667" y2="14.3719298" id="路径" stroke="#030000" stroke-width="0.37" stroke-linejoin="bevel"></line>
                        <path d="M37.954386,12.3789474 C30.0485789,13.9558928 24.6274512,21.2715499 25.4197598,29.2940675 C26.2120685,37.3165851 32.9595055,43.4304675 41.0210526,43.4304675 C49.0825997,43.4304675 55.8300368,37.3165851 56.6223454,29.2940675 C57.4146541,21.2715499 51.9935263,13.9558928 44.0877193,12.3789474" id="路径" stroke="#030000" stroke-width="0.37" stroke-linejoin="bevel"></path>
                        <path d="M38.6421053,12.9403509 C38.6363999,12.7703267 38.5575177,12.6110575 38.4257325,12.5034777 C38.2939472,12.3958979 38.1221102,12.3504984 37.954386,12.3789474" id="路径" stroke="#030000" stroke-width="0.37" stroke-linejoin="bevel"></path>
                        <line x1="38.6421053" y1="14.3719298" x2="38.6421053" y2="12.9403509" id="路径" stroke="#030000" stroke-width="0.37" stroke-linejoin="bevel"></line>
                        <path d="M38.6421053,14.3719298 C38.5734226,15.2654654 39.0112305,16.1221342 39.7756269,16.5899177 C40.5400232,17.0577012 41.5020821,17.0577012 42.2664784,16.5899177 C43.0308747,16.1221342 43.4686826,15.2654654 43.4,14.3719298" id="路径" stroke="#030000" stroke-width="0.37" stroke-linejoin="bevel"></path>
                        <line x1="43.4" y1="12.9403509" x2="43.4" y2="14.3719298" id="路径" stroke="#030000" stroke-width="0.37" stroke-linejoin="bevel"></line>
                        <path d="M44.0877193,12.3789474 C43.9177559,12.3472248 43.7425364,12.3936065 43.6105263,12.5052632 C43.4813844,12.6135317 43.4047565,12.7718959 43.4,12.9403509" id="路径" stroke="#030000" stroke-width="0.37" stroke-linejoin="bevel"></path>
                        <line x1="43.9754386" y1="12.9403509" x2="44.0877193" y2="12.3789474" id="路径" stroke="#030000" stroke-width="0.37" stroke-linejoin="bevel"></line>
                        <line x1="43.9754386" y1="12.9403509" x2="43.4" y2="12.9403509" id="路径" stroke="#030000" stroke-width="0.37" stroke-linejoin="bevel"></line>
                        <line x1="43.4" y1="14.3719298" x2="43.9754386" y2="14.3719298" id="路径" stroke="#030000" stroke-width="0.37" stroke-linejoin="bevel"></line>
                        <line x1="38.0666667" y1="14.3719298" x2="38.6421053" y2="14.3719298" id="路径" stroke="#030000" stroke-width="0.37" stroke-linejoin="bevel"></line>
                        <line x1="38.6421053" y1="12.9403509" x2="38.0666667" y2="12.9403509" id="路径" stroke="#030000" stroke-width="0.37" stroke-linejoin="bevel"></line>
                        <line x1="37.954386" y1="12.3789474" x2="38.0666667" y2="12.9403509" id="路径" stroke="#030000" stroke-width="0.37" stroke-linejoin="bevel"></line>
                        <path d="M61.0280851,27.7614035 C61.0400041,17.9279296 53.8970236,9.54683249 44.1859649,8" id="路径" stroke="#030000" stroke-width="0.37" stroke-linejoin="bevel"></path>
                        <path d="M27.8350877,9.54385965 C24.4051253,12.0303172 21.7484658,15.4362909 20.1719298,19.3684211" id="路径" stroke="#030000" stroke-width="0.37" stroke-linejoin="bevel"></path>
                        <path d="M22.0526316,20.0842105 C21.0242032,22.5162494 20.466964,25.1214617 20.4105263,27.7614035" id="路径" stroke="#030000" stroke-width="0.37" stroke-linejoin="bevel"></path>
                        <path d="M33.9684211,6.06315789 C31.7534181,6.89312667 29.6834547,8.06784279 27.8350877,9.54385965" id="路径" stroke="#030000" stroke-width="0.37" stroke-linejoin="bevel"></path>
                        <path d="M68.2701791,27.7614035 C68.2758528,16.7360484 61.6387081,6.79316389 51.4542371,2.57000869 C41.2697662,-1.65314652 29.544113,0.675307546 21.7460011,8.46940396 C13.9478892,16.2635004 11.6133959,27.9879527 15.8313049,38.1745975 C20.0492139,48.3612423 29.9886785,55.0035124 41.0140351,55.0035124 C48.2415221,55.0072324 55.1742643,52.1387341 60.286186,47.0294447 C65.3981077,41.9201553 68.2701791,34.9888914 68.2701791,27.7614035 Z" id="路径" stroke="#030000" stroke-width="0.37" stroke-linejoin="bevel"></path>
                        <path d="M20.1719298,19.3403509 C16.4690209,28.494187 19.1801989,38.9928023 26.8523224,45.2091332 C34.524446,51.4254641 45.3570618,51.9006949 53.5440881,46.3801107 C61.7311144,40.8595266 65.3512633,30.6386689 62.4642018,21.1957284 C59.5771403,11.7527878 50.8603888,5.30378382 40.9859649,5.3052629" id="路径" stroke="#030000" stroke-width="0.37" stroke-linejoin="bevel"></path>
                        <path d="M40.9859649,5.26315789 C38.6194172,5.16334565 36.2517814,5.43325614 33.9684211,6.06315789" id="路径" stroke="#030000" stroke-width="0.37" stroke-linejoin="bevel"></path>
                        <path d="M48.3824561,9.15087719 C40.2147512,5.90953773 30.8881192,8.3750173 25.3891289,15.2291248 C19.8901385,22.0832323 19.5051966,31.7225515 24.4401158,38.9933325 C29.3750351,46.2641135 38.4753647,49.4654656 46.8755306,46.8857566 C55.2756964,44.3060477 61.010605,36.5487622 61.0140351,27.7614035" id="路径" stroke="#030000" stroke-width="0.37" stroke-linejoin="bevel"></path>
                        <circle id="椭圆形" fill="#26C464" fill-rule="nonzero" cx="47.6666667" cy="20.9403509" r="2.72280702"></circle>
                        <circle id="椭圆形" fill="#26C464" fill-rule="nonzero" cx="34.2912281" cy="34.4842105" r="2.72280702"></circle>
                        <polyline id="路径" stroke="#26C464" stroke-width="0.5" stroke-linecap="round" points="50.8666667 24.8140351 56.0175439 30.0912281 80.677193 30.0912281"></polyline>
                        <polyline id="路径" stroke="#26C464" stroke-width="0.5" stroke-linecap="round" points="31.1473684 30.3157895 25.9964912 25.0385965 1.35087719 25.0385965"></polyline>
                    </g>
                </g>
            </g>
        </g>
    </g>
</svg>