<?xml version="1.0" encoding="UTF-8"?>
<svg width="45px" height="44px" viewBox="0 0 45 44" version="1.1" xmlns="http://www.w3.org/2000/svg" xmlns:xlink="http://www.w3.org/1999/xlink">
    <title>btn_log</title>
    <g id="appUI" stroke="none" stroke-width="1" fill="none" fill-rule="evenodd">
        <g id="设备管理-更多操作" transform="translate(-260.000000, -495.000000)">
            <g id="日志" transform="translate(261.000000, 495.000000)">
                <circle id="椭圆形" fill="#4D8CEB" cx="22" cy="22" r="22"></circle>
                <g id="icon/列表" transform="translate(10.000000, 10.000000)" fill="#FFFFFF">
                    <g id="编组">
                        <path d="M20,22 L4,22 C3.44771525,22 3,21.5522847 3,21 L3,3 C3,2.44771525 3.44771525,2 4,2 L20,2 C20.5522847,2 21,2.44771525 21,3 L21,21 C21,21.5522847 20.5522847,22 20,22 Z M8,7 L8,9 L16,9 L16,7 L8,7 Z M8,11 L8,13 L16,13 L16,11 L8,11 Z M8,15 L8,17 L13,17 L13,15 L8,15 Z" id="形状" fill-rule="nonzero"></path>
                    </g>
                </g>
            </g>
        </g>
    </g>
</svg>