<?xml version="1.0" encoding="UTF-8"?>
<svg width="45px" height="44px" viewBox="0 0 45 44" version="1.1" xmlns="http://www.w3.org/2000/svg" xmlns:xlink="http://www.w3.org/1999/xlink">
    <title>btn_log</title>
    <g id="appUI" stroke="none" stroke-width="1" fill="none" fill-rule="evenodd">
        <g id="设备管理-更多操作" transform="translate(-314.000000, -495.000000)">
            <g id="删除" transform="translate(315.000000, 495.000000)">
                <circle id="椭圆形" fill="#F1544F" cx="22" cy="22" r="22"></circle>
                <g id="icon/删除" transform="translate(10.000000, 10.000000)" fill="#FFFFFF">
                    <g id="编组">
                        <g transform="translate(2.000000, 2.000000)" fill-rule="nonzero" id="形状">
                            <path d="M5,4 L5,1 C5,0.44771525 5.44771525,0 6,0 L14,0 C14.5522847,0 15,0.44771525 15,1 L15,4 L20,4 L20,6 L18,6 L18,19 C18,19.5522847 17.5522847,20 17,20 L3,20 C2.44771525,20 2,19.5522847 2,19 L2,6 L0,6 L0,4 L5,4 Z M11.414,12 L13.182,10.232 L11.768,8.818 L10,10.586 L8.232,8.818 L6.818,10.232 L8.586,12 L6.818,13.768 L8.232,15.182 L10,13.414 L11.768,15.182 L13.182,13.768 L11.414,12 Z M7,2 L7,4 L13,4 L13,2 L7,2 Z"></path>
                        </g>
                    </g>
                </g>
            </g>
        </g>
    </g>
</svg>